<svg width="32" height="32" viewBox="0 0 32 32" fill="none" xmlns="http://www.w3.org/2000/svg">
<path d="M18.5801 31.792C18.4468 31.8137 18.313 31.8337 18.1787 31.8521C18.313 31.8337 18.4468 31.8137 18.5801 31.792Z" fill="white"/>
<path d="M18.9001 31.7373C18.8364 31.749 18.7727 31.7598 18.709 31.7708C18.7727 31.7598 18.8364 31.749 18.9001 31.7373Z" fill="white"/>
<path d="M17.821 31.8965C17.665 31.9141 17.5081 31.9297 17.3506 31.9429C17.5081 31.9297 17.665 31.9141 17.821 31.8965Z" fill="white"/>
<path d="M18.1279 31.8584C18.053 31.8684 17.9775 31.8777 17.9023 31.8865C17.9775 31.8777 18.053 31.8684 18.1279 31.8584Z" fill="white"/>
<path d="M19.3359 31.6504C19.2798 31.6624 19.2234 31.6743 19.167 31.6858C19.2234 31.6743 19.2798 31.6624 19.3359 31.6504Z" fill="white"/>
<path d="M20.4165 31.3818C20.3711 31.3948 20.3257 31.407 20.2803 31.4197C20.3257 31.407 20.3711 31.3948 20.4165 31.3818Z" fill="white"/>
<path d="M20.0898 31.4717C20.0405 31.4846 19.991 31.4978 19.9414 31.5103C19.991 31.4978 20.0405 31.4849 20.0898 31.4717Z" fill="white"/>
<path d="M19.6616 31.5781C19.6094 31.5903 19.5566 31.6018 19.5039 31.6135C19.5566 31.6018 19.6094 31.5903 19.6616 31.5781Z" fill="white"/>
<path d="M17.3457 31.9434C17.2615 31.9504 17.1772 31.9568 17.0928 31.9624C17.1772 31.9568 17.2615 31.9504 17.3457 31.9434Z" fill="white"/>
<path d="M32 16C32 7.16479 24.8352 0 16 0C7.16479 0 0 7.16479 0 16C0 24.8352 7.16479 32 16 32C16.094 32 16.1875 31.998 16.2812 31.9963V19.541H12.8438V15.5349H16.2812V12.5869C16.2812 9.16797 18.3684 7.30713 21.4182 7.30713C22.8787 7.30713 24.134 7.41602 24.5 7.4646V11.0378H22.397C20.7378 11.0378 20.4165 11.8264 20.4165 12.9834V15.5349H24.3838L23.8667 19.541H20.4165V31.3818C27.1042 29.4646 32 23.3032 32 16Z" fill="white"/>
<path d="M17.0571 31.9644C16.8906 31.9751 16.7234 31.9836 16.5557 31.9893C16.7234 31.9836 16.8906 31.9751 17.0571 31.9644Z" fill="white"/>
<path d="M16.5469 31.9897C16.4585 31.9927 16.3699 31.9949 16.2812 31.9963C16.3699 31.9949 16.4585 31.9927 16.5469 31.9897Z" fill="white"/>
</svg>
