<svg width="21" height="32" viewBox="0 0 21 32" fill="none" xmlns="http://www.w3.org/2000/svg">
<path d="M19.5414 5.35142C17.6879 2.07846 14.3958 0.078888 10.7349 0.00247193C10.5787 -0.000823976 10.4214 -0.000823976 10.265 0.00247193C6.6042 0.078888 3.3121 2.07846 1.4586 5.35142C-0.435943 8.69688 -0.487777 12.7154 1.31992 16.1011L8.89301 30.2849C8.89641 30.2912 8.89981 30.2975 8.90333 30.3037C9.23653 30.8963 9.83343 31.2501 10.5001 31.2501C11.1667 31.2501 11.7636 30.8962 12.0968 30.3037C12.1003 30.2975 12.1037 30.2912 12.1071 30.2849L19.6802 16.1011C21.4878 12.7154 21.4359 8.69688 19.5414 5.35142ZM10.5 14.1602C8.1319 14.1602 6.20533 12.1888 6.20533 9.76567C6.20533 7.34251 8.1319 5.37113 10.5 5.37113C12.8681 5.37113 14.7947 7.34251 14.7947 9.76567C14.7947 12.1888 12.8681 14.1602 10.5 14.1602Z" fill="white"/>
</svg>
