<svg width="105" height="105" fill="none" xmlns="http://www.w3.org/2000/svg"><circle cx="52.5" cy="52.5" r="52" fill="#fff" stroke="#DB8C3D"/><path d="M78.22 25a3.82 3.82 0 00-2.672 1.07l-5.565 5.372-.449-.433c-1.229-1.186-3.23-1.186-4.46 0l-4.7 4.54-2.375-2.294c-7.014-6.772-18.427-6.772-25.44 0-7.015 6.773-7.015 17.792 0 24.565l2.374 2.292-4.7 4.539a2.975 2.975 0 000 4.306l.448.433-5.576 5.383a3.565 3.565 0 000 5.16A3.839 3.839 0 0027.777 81c.968 0 1.935-.356 2.672-1.067l5.576-5.384.448.433c.615.594 1.422.89 2.23.89s1.615-.296 2.23-.89l4.773-4.609 2.473 2.388c3.506 3.386 8.114 5.079 12.72 5.079 4.607 0 9.213-1.694 12.72-5.08 7.015-6.772 7.015-17.79 0-24.564l-2.472-2.387 4.63-4.47a2.975 2.975 0 000-4.305l-.45-.433 5.566-5.373a3.562 3.562 0 000-5.16A3.83 3.83 0 0078.22 25zM33.585 56.83c-6.448-6.227-6.448-16.357 0-22.584 6.449-6.226 16.94-6.226 23.388 0l2.375 2.293L42.983 52.34l-4.327-4.177a.743.743 0 00-1.026 0 .683.683 0 000 .99l4.327 4.178-5.997 5.79-2.375-2.292zm-4.162 22.113a2.39 2.39 0 01-3.292 0 2.197 2.197 0 010-3.178l5.576-5.384L35 73.559l-5.576 5.384zm43.17-29.755c6.448 6.227 6.448 16.358 0 22.584-6.448 6.225-16.94 6.225-23.389 0l-2.473-2.388 16.11-15.555 4.181 4.036a.737.737 0 00.513.206.737.737 0 00.513-.206.683.683 0 000-.99l-4.18-4.037 6.252-6.037 2.473 2.387zm2.156-8.838L39.907 73.992c-.664.64-1.743.64-2.407 0l-6.241-6.026a1.605 1.605 0 010-2.324L66.102 32a1.73 1.73 0 011.203-.48c.436 0 .872.16 1.204.48l6.241 6.026c.663.64.663 1.683 0 2.324zm5.117-10.112l-5.565 5.373-3.292-3.178 5.565-5.373c.88-.85 2.413-.85 3.292 0a2.197 2.197 0 010 3.178z" fill="#DB8C3D"/></svg>