<svg width="105" height="105" fill="none" xmlns="http://www.w3.org/2000/svg"><circle cx="52.5" cy="52.5" r="52" fill="#fff" stroke="#DB8C3D"/><path d="M80.3 25H46.7a.7.7 0 00-.7.7v6.353H25.7a.7.7 0 00-.7.7V80.3a.7.7 0 00.7.7h33.6a.7.7 0 00.7-.7v-6.353h20.3a.7.7 0 00.7-.7V25.7a.7.7 0 00-.7-.7zm-53.9 8.453H46v39.794c0 .034.014.062.018.095.007.046.012.09.027.133.016.046.04.085.064.126.021.036.041.07.07.103a.685.685 0 00.115.099c.024.017.04.041.066.056L56.673 79.6H26.4V33.453zm32.2 45.618l-9.204-5.124H58.6v5.124zm21-6.524H47.4V26.4h32.2v46.147z" fill="#DB8C3D"/><path d="M39.932 40.215H32.35a.7.7 0 100 1.4h7.584a.7.7 0 100-1.4zm0 6.353H32.35a.7.7 0 100 1.4h7.584a.7.7 0 100-1.4zm0 6.353H32.35a.7.7 0 100 1.4h7.584a.7.7 0 100-1.4zm0 6.354H32.35a.7.7 0 100 1.4h7.584a.7.7 0 100-1.4zm0 6.353H32.35a.7.7 0 100 1.4h7.584a.7.7 0 100-1.4zm0 6.353H32.35a.7.7 0 100 1.4h7.584a.7.7 0 100-1.4zm13.826-24.249v12.19a2.36 2.36 0 002.357 2.357h14.768a2.36 2.36 0 002.357-2.357v-12.19a6.152 6.152 0 002.333-5.4 6.202 6.202 0 00-8.411-5.248c-.945.367-2.038.537-3.442.537h-.443c-1.403 0-2.496-.17-3.44-.537a6.201 6.201 0 00-8.412 5.247 6.15 6.15 0 002.333 5.401zm-.939-5.282c.2-2.359 2.213-4.282 4.584-4.379a4.75 4.75 0 011.928.318c1.11.432 2.364.632 3.946.632h.443c1.582 0 2.837-.2 3.947-.632a4.776 4.776 0 011.928-.318c2.37.097 4.383 2.02 4.584 4.379a4.77 4.77 0 01-2.04 4.357.7.7 0 00-.299.573v12.542c0 .528-.43.957-.957.957H56.115a.958.958 0 01-.957-.957V47.381a.7.7 0 00-.3-.574 4.77 4.77 0 01-2.039-4.357z" fill="#DB8C3D"/></svg>