<svg width="106" height="105" fill="none" xmlns="http://www.w3.org/2000/svg"><path d="M105.5 52.5c0 28.714-23.5 52-52.5 52S.5 81.214.5 52.5 24 .5 53 .5s52.5 23.286 52.5 52z" fill="#fff" stroke="#DB8C3D"/><path d="M50.511 32.398c-.153 0-4.134-.841-7.044.994.153-.535.23-1.147.23-1.759 0-3.747-3.446-6.73-3.599-6.882a.806.806 0 00-.995 0c-.154.152-3.6 3.059-3.6 6.883 0 .611.077 1.223.23 1.758-2.986-1.835-6.89-1.07-7.12-1.07-.383.076-.613.382-.613.764 0 .154.153 4.13 2.603 6.578-1.148 0-1.914.152-1.99.229-.383.076-.613.382-.613.765 0 .153.153 4.13 2.603 6.577-1.148 0-1.914.153-1.99.23-.383.076-.613.381-.613.764 0 .153.153 4.13 2.603 6.577-1.148 0-1.914.153-1.99.23-.383.076-.613.382-.613.764 0 .23.23 4.742 3.14 7.036.076 0 .076.076.152.076-1.454-.076-2.603.153-2.68.153-.382.077-.612.383-.612.765 0 .23.23 4.742 3.14 7.036 1.684 1.3 3.828 1.606 5.436 1.606 1.148 0 2.067-.153 2.22-.23v7.572c0 .459.307.765.766.765.46 0 .766-.306.766-.765v-7.571c.23.076 1.072.153 2.144.153 1.608 0 3.752-.306 5.436-1.606 2.986-2.371 3.14-6.883 3.14-7.036 0-.383-.23-.689-.613-.765-.077 0-1.225-.23-2.68-.153.076 0 .076-.077.153-.077 2.986-2.37 3.14-6.883 3.14-7.035 0-.383-.23-.689-.613-.765-.077 0-.842-.153-1.99-.23 2.45-2.447 2.602-6.347 2.602-6.577 0-.382-.23-.688-.612-.764-.077 0-.842-.153-1.99-.23 2.45-2.447 2.602-6.347 2.602-6.577 0-.382-.23-.688-.612-.765-.077 0-.842-.153-1.99-.229 2.45-2.447 2.602-6.348 2.602-6.577.077-.23-.153-.535-.535-.612zM38.873 60.236c-.383-1.147-.995-2.371-1.99-3.289 1.071 0 1.837-.153 1.99-.153v3.442zm0-7.495c-.383-1.147-.995-2.37-1.99-3.365 1.071 0 1.837-.153 1.99-.153v3.518zm0-7.571c-.383-1.147-.995-2.371-1.99-3.365 1.071 0 1.837-.153 1.99-.153v3.518zm1.531 11.548c.23.076.996.153 1.914.153-.918.917-1.53 2.141-1.914 3.212v-3.365zm0-7.495c.23.077.996.153 1.914.153-.918.918-1.53 2.141-1.914 3.212v-3.365zm0-7.571c.23.076.996.153 1.914.153-.918.918-1.53 2.141-1.914 3.212v-3.365zm-.765-15.219c.842.918 2.603 2.906 2.603 5.2 0 2.295-1.685 4.36-2.527 5.2-.842-.917-2.603-2.905-2.603-5.2-.077-2.294 1.608-4.282 2.527-5.2zm-4.288 8.565c1.837 1.454 2.373 3.977 2.526 5.277-1.225.153-3.905.23-5.666-1.223-1.837-1.453-2.373-3.977-2.526-5.277 1.225-.077 3.905-.153 5.666 1.223zm0 7.572c1.837 1.453 2.373 3.976 2.526 5.276-1.225.154-3.905.23-5.666-1.223-1.837-1.453-2.373-3.977-2.526-5.277 1.225-.153 3.905-.23 5.666 1.224zm0 7.494c1.837 1.453 2.373 3.977 2.526 5.277-1.225.153-3.905.23-5.666-1.223-1.837-1.454-2.373-3.977-2.526-5.277 1.225-.077 3.905-.153 5.666 1.223zm-5.666 6.348c1.225-.153 3.905-.23 5.666 1.224 1.837 1.453 2.373 3.976 2.526 5.276-1.225.153-3.905.23-5.666-1.223-1.837-1.453-2.373-4.053-2.526-5.277zm2.526 13.383c-1.837-1.453-2.373-3.977-2.526-5.277 1.225-.153 3.905-.229 5.666 1.224 1.837 1.453 2.373 3.977 2.526 5.277-1.225.076-3.828.153-5.666-1.224zm4.135-5.277c-.076 0-.076-.076-.153-.076h.46c1.148 0 2.067-.153 2.22-.23v4.13c-.46-1.3-1.225-2.753-2.527-3.824zm13.17 0c-.153 1.224-.69 3.824-2.527 5.277-1.837 1.453-4.44 1.377-5.666 1.224.153-1.224.69-3.824 2.527-5.277 1.761-1.453 4.44-1.377 5.666-1.224zm-6.661 0c-1.302.995-2.068 2.371-2.527 3.671v-3.976c.23.076 1.072.153 2.144.153h.46c0 .076 0 .152-.078.152zm4.134-2.906c-1.837 1.453-4.44 1.377-5.666 1.224.153-1.224.69-3.824 2.527-5.277 1.838-1.453 4.44-1.377 5.666-1.224-.153 1.3-.69 3.9-2.527 5.277zm0-7.494c-1.837 1.453-4.44 1.376-5.666 1.223.153-1.223.69-3.824 2.527-5.277 1.838-1.453 4.44-1.376 5.666-1.223-.153 1.223-.69 3.823-2.527 5.277zm0-7.572c-1.837 1.453-4.44 1.377-5.666 1.224.153-1.224.69-3.824 2.527-5.277 1.838-1.453 4.44-1.376 5.666-1.224-.153 1.3-.69 3.9-2.527 5.277zm0-7.494c-1.837 1.453-4.44 1.376-5.666 1.223.153-1.223.69-3.823 2.527-5.277 1.838-1.453 4.44-1.376 5.666-1.223-.153 1.3-.69 3.824-2.527 5.277zm30.398-6.654c-.153 0-4.134-.841-7.044.994.153-.535.23-1.147.23-1.759 0-3.747-3.446-6.73-3.599-6.882a.806.806 0 00-.995 0c-.154.152-3.6 3.059-3.6 6.883 0 .611.077 1.223.23 1.758-2.986-1.835-6.89-1.07-7.12-1.07-.383.076-.613.382-.613.764 0 .154.153 4.13 2.603 6.578-1.148 0-1.914.152-1.99.229-.383.076-.613.382-.613.765 0 .153.153 4.13 2.603 6.577-1.148 0-1.914.153-1.99.23-.383.076-.613.381-.613.764 0 .153.153 4.13 2.603 6.577-1.148 0-1.914.153-1.99.23-.383.076-.613.382-.613.764 0 .23.23 4.742 3.14 7.036.076 0 .076.076.153.076-1.455-.076-2.604.153-2.68.153-.383.077-.613.383-.613.765 0 .23.23 4.742 3.14 7.036 1.684 1.3 3.828 1.606 5.436 1.606 1.148 0 2.067-.153 2.22-.23v7.572c0 .459.307.765.766.765.46 0 .766-.306.766-.765v-7.571c.23.076 1.072.153 2.144.153 1.608 0 3.752-.306 5.436-1.606 2.986-2.371 3.14-6.883 3.216-7.036 0-.383-.23-.689-.613-.765-.076 0-1.225-.23-2.68-.153.077 0 .077-.077.154-.077C77.847 60.39 78 55.876 78 55.724c0-.383-.23-.689-.613-.765-.076 0-.842-.153-1.99-.23C77.847 52.282 78 48.382 78 48.152c0-.382-.23-.688-.613-.764-.076 0-.842-.153-1.99-.23C77.847 44.711 78 40.811 78 40.581c0-.382-.23-.688-.613-.765-.076 0-.842-.153-1.99-.229C77.847 37.14 78 33.239 78 33.01c0-.23-.23-.535-.613-.612zM65.75 60.236c-.383-1.147-.996-2.371-1.991-3.365 1.072 0 1.838-.153 1.99-.153v3.518zm0-7.495c-.383-1.147-.996-2.37-1.991-3.365 1.072 0 1.838-.153 1.99-.153v3.518zm0-7.571c-.383-1.147-.996-2.371-1.991-3.365 1.072 0 1.838-.153 1.99-.153v3.518zm1.531 11.548c.23.076.996.153 1.915.153-.92.917-1.532 2.141-1.915 3.212v-3.365zm0-7.495c.23.077.996.153 1.915.153-.92.918-1.532 2.141-1.915 3.212v-3.365zm0-7.571c.23.076.996.153 1.915.153-.92.918-1.532 2.141-1.915 3.212v-3.365zm-.765-15.219c.842.918 2.603 2.906 2.603 5.2 0 2.295-1.685 4.36-2.527 5.2-.842-.917-2.603-2.905-2.603-5.2-.077-2.294 1.608-4.282 2.527-5.2zm-4.288 8.565c1.837 1.454 2.373 3.977 2.527 5.277-1.226.153-3.906.23-5.667-1.223-1.837-1.453-2.373-3.977-2.527-5.277 1.226-.077 3.829-.153 5.667 1.223zm0 7.572c1.837 1.453 2.373 3.976 2.527 5.276-1.226.154-3.906.23-5.667-1.223-1.837-1.453-2.373-3.977-2.527-5.277 1.226-.153 3.829-.23 5.667 1.224zm0 7.494c1.837 1.453 2.373 3.977 2.527 5.277-1.226.153-3.906.23-5.667-1.223-1.837-1.454-2.373-4.054-2.527-5.277 1.226-.077 3.829-.153 5.667 1.223zm-5.666 6.348c1.225-.153 3.905-.23 5.666 1.224 1.837 1.453 2.373 3.976 2.527 5.276-1.226.153-3.906.23-5.667-1.223-1.837-1.453-2.373-4.053-2.527-5.277zm2.526 13.383c-1.837-1.453-2.373-3.977-2.527-5.277 1.226-.153 3.906-.229 5.667 1.224 1.837 1.453 2.373 3.977 2.527 5.277-1.226.076-3.906.153-5.667-1.224zm4.058-5.277c-.076 0-.076-.076-.153-.076h.46c1.148 0 2.067-.153 2.22-.23v4.13c-.383-1.3-1.148-2.753-2.526-3.824zm13.247 0c-.153 1.224-.69 3.824-2.527 5.277-1.837 1.453-4.44 1.377-5.666 1.224.153-1.224.69-3.824 2.527-5.277 1.761-1.453 4.44-1.377 5.666-1.224zm-6.661 0c-1.302.995-2.068 2.371-2.527 3.671v-3.976c.23.076 1.072.153 2.144.153h.459c0 .076 0 .152-.076.152zm4.134-2.906c-1.837 1.453-4.44 1.377-5.666 1.224.153-1.224.69-3.824 2.527-5.277 1.838-1.453 4.44-1.377 5.666-1.224-.153 1.3-.69 3.9-2.527 5.277zm0-7.494c-1.837 1.453-4.44 1.376-5.666 1.223.153-1.223.69-3.824 2.527-5.277 1.838-1.453 4.44-1.376 5.666-1.223-.153 1.223-.69 3.823-2.527 5.277zm0-7.572C72.028 48 69.425 47.923 68.2 47.77c.153-1.224.69-3.824 2.527-5.277 1.838-1.453 4.44-1.376 5.666-1.224-.153 1.3-.69 3.9-2.527 5.277zm0-7.494c-1.837 1.453-4.44 1.376-5.666 1.223.153-1.223.69-3.823 2.527-5.277 1.838-1.453 4.44-1.376 5.666-1.223-.153 1.3-.69 3.824-2.527 5.277z" fill="#DB8C3D"/></svg>