<svg width="106" height="105" fill="none" xmlns="http://www.w3.org/2000/svg"><path d="M105.5 52.5c0 28.714-23.5 52-52.5 52S.5 81.214.5 52.5 24 .5 53 .5s52.5 23.286 52.5 52z" fill="#fff" stroke="#DB8C3D"/><path d="M49.542 74.472h1.454a.7.7 0 100-1.399h-1.454a.7.7 0 100 1.4zm6.775 0h1.454a.7.7 0 100-1.399h-1.454a.7.7 0 100 1.4zm-6.775 3.718h1.454a.7.7 0 100-1.4h-1.454a.7.7 0 100 1.4zm6.775 0h1.454a.7.7 0 100-1.4h-1.454a.7.7 0 100 1.4z" fill="#DB8C3D"/><path d="M45.735 62.96a.702.702 0 00-1.016.439l-.565 2.213h-1.817C36.086 65.612 31 70.698 31 76.95v3.35a.7.7 0 00.7.7h41.878a.7.7 0 00.7-.7v-3.35c0-6.252-5.086-11.338-11.338-11.338h-1.817l-.565-2.212a.697.697 0 00-1.016-.439l-1.37.758v-1.333c.088.001.178.005.265.005 4.151 0 6.736-1.413 6.85-1.476a.7.7 0 00.056-1.187c-1.366-.94-2.504-4.1-2.828-5.238 0-.002-.003-.004-.004-.006a10.6 10.6 0 00.623-3.569c0-2.334-.785-4.6-2.205-6.448v-4.184c2.717-.98 4.415-3.674 4.087-6.605-.312-2.79-2.556-5.098-5.338-5.486a6.284 6.284 0 00-2.148.065 6.262 6.262 0 00-11.178.373 5.101 5.101 0 00-2.115.11c-2.331.624-3.97 2.718-3.984 5.094a5.276 5.276 0 004.126 5.202v5.1a10.605 10.605 0 00-2.465 6.78c0 1.326.252 2.604.706 3.79-.392 1.279-1.477 4.136-2.764 5.022a.701.701 0 00.056 1.187c.114.063 2.698 1.476 6.85 1.476.073 0 .15-.004.224-.004v1.266l-1.251-.693zm-.776 8.48v8.161H32.4V76.95c0-5.48 4.458-9.939 9.938-9.939h2.36a.7.7 0 00.678-.526l.475-1.861 5.345 2.956-5.874 3.25a.697.697 0 00-.362.61zm14.944-4.955a.7.7 0 00.677.526h2.36c5.48 0 9.939 4.46 9.939 9.939v2.65h-26.52v-7.748l13.069-7.23.475 1.862zM43.329 51.328c1.75-.19 8.032-1.139 10.898-5.095 1.007 1.319 3.413 3.79 7.493 4.335.005.116.016.23.016.347 0 3.984-2.545 7.498-6.292 8.733-3.104.824-5.785.016-5.8.012a9.188 9.188 0 01-6.315-8.332zm2.006-6.149h7.92c-2.316 3.507-8.02 4.498-9.88 4.732a9.21 9.21 0 011.96-4.732zm14.38 0a9.22 9.22 0 011.84 3.954c-3.622-.61-5.652-2.95-6.369-3.954h4.529zm3.978 14.909c-1.06.395-2.985.937-5.521.895v-1.09a10.582 10.582 0 003.48-3.573c.428 1.14 1.12 2.693 2.04 3.768zM41.652 33.84c.01-1.748 1.222-3.29 2.946-3.75a3.748 3.748 0 011.996.02.702.702 0 00.847-.444 4.872 4.872 0 014.593-3.27c1.692 0 3.237.876 4.119 2.279a5.318 5.318 0 00-2.476 2.164.7.7 0 001.204.712c.862-1.458 2.333-1.776 2.406-1.792.012-.002.02-.01.033-.013.012-.003.026 0 .038-.004a4.887 4.887 0 012.128-.167c2.158.302 3.9 2.092 4.14 4.257a4.85 4.85 0 01-3.576 5.26.699.699 0 00-.518.676v4.013H45.778v-5.34a.7.7 0 00-.628-.696 3.883 3.883 0 01-3.498-3.905zm-.147 26.247c.88-1.027 1.551-2.489 1.982-3.612a10.59 10.59 0 003.5 3.482v1.025c-2.514.034-4.428-.503-5.482-.895zm6.88.59c.27.115.547.22.83.313.082.026 1.392.426 3.292.426.983 0 2.125-.107 3.335-.43.319-.104.628-.227.93-.36v3.865l-4.139 2.29a.714.714 0 00-.065-.041l-4.184-2.315v-3.748z" fill="#DB8C3D"/></svg>