<svg width="106" height="105" fill="none" xmlns="http://www.w3.org/2000/svg"><path d="M105.5 52.5c0 28.714-23.5 52-52.5 52S.5 81.214.5 52.5 24 .5 53 .5s52.5 23.286 52.5 52z" fill="#fff" stroke="#DB8C3D"/><path d="M70.829 53.332a11.97 11.97 0 015.213 3.81.7.7 0 00.528.266h.022a.7.7 0 00.522-.234 4.127 4.127 0 001.052-2.752 4.141 4.141 0 00-4.136-4.136 4.157 4.157 0 00-3.558 2.032.702.702 0 00.357 1.014zm3.2-1.646a2.74 2.74 0 012.738 2.736c0 .391-.084.773-.243 1.123a13.356 13.356 0 00-4.322-3.16 2.712 2.712 0 011.828-.7z" fill="#DB8C3D"/><path d="M25.703 80.997H80.3a.7.7 0 00.7-.7v-5.08a.7.7 0 00-.7-.7h-4.875a13.281 13.281 0 004.486-9.956c0-1.7-.317-3.352-.943-4.919a7.008 7.008 0 001.935-6.103c-.486-2.974-2.916-5.344-5.909-5.764a7.021 7.021 0 00-4.601.928v-1.254c.823-.08 1.503-.722 1.585-1.527a1.712 1.712 0 00-1.7-1.883h-.352v-2.602a.7.7 0 00-.7-.7h-5.602a.7.7 0 00-.7.7v2.602h-1.4c-.523 0-.995.29-1.234.754a1.38 1.38 0 00.109 1.441.709.709 0 00.093.106l1.396 1.284c.36.334.568.806.568 1.297v3.003a13.163 13.163 0 00-3.94 2.098v-5.77a7.8 7.8 0 00-1.456-4.55l-1.056-1.483c-.161-.227-.31-.424-.446-.605-.62-.825-.852-1.133-.852-2.227v-.913c.516-.12.903-.58.903-1.132v-1.996c0-.642-.522-1.163-1.163-1.163H53.24V25.7a.7.7 0 00-1.178-.512l-2.664 2.483a.7.7 0 00-.222.512v6h-1.207c-.642 0-1.164.521-1.164 1.163v1.995c0 .552.386 1.013.903 1.132v.913c0 1.094-.232 1.402-.851 2.228-.136.18-.285.378-.446.605L45.354 43.7a7.803 7.803 0 00-1.456 4.551v26.266h-2.939V48.252a7.796 7.796 0 00-1.456-4.55l-1.056-1.483c-.16-.227-.31-.425-.446-.606-.62-.825-.851-1.133-.851-2.227v-.913c.517-.119.904-.58.904-1.132v-1.995c0-.642-.523-1.164-1.164-1.164h-1.207V25.7a.7.7 0 00-1.178-.512l-2.664 2.483a.7.7 0 00-.222.512v6H30.41c-.641 0-1.164.521-1.164 1.163v1.995c0 .552.387 1.013.903 1.132v.913c0 1.093-.231 1.402-.85 2.227-.137.18-.286.38-.447.605l-1.056 1.483a7.802 7.802 0 00-1.456 4.551v26.266h-.64a.7.7 0 00-.7.7v5.079c.003.387.316.7.703.7zm53.897-1.4H26.403v-3.68H79.6v3.68zm-6.388-5.132c-.022.015-.033.037-.052.053H60.056c-.02-.016-.031-.038-.053-.053a11.893 11.893 0 01-5.299-9.903c0-.61.053-1.21.144-1.802 5.713.047 8.584.908 11.609 1.821 2.97.896 6.046 1.819 11.897 1.879a11.896 11.896 0 01-5.142 8.005zm-8.888-32.328h4.202v1.902h-4.202v-1.902zm-.976 10.977a.7.7 0 00.51-.673v-3.52a3.17 3.17 0 00-1.021-2.326l-1.255-1.156h8.695a.308.308 0 01.307.344c-.014.149-.181.275-.364.275h-.526a.7.7 0 00-.7.7v3.345a.7.7 0 001.177.512 5.615 5.615 0 014.63-1.454c2.391.336 4.333 2.23 4.722 4.605a5.614 5.614 0 01-1.849 5.173.7.7 0 00-.18.81 11.81 11.81 0 011.018 4.813c0 .167-.009.333-.016.5-5.73-.046-8.604-.908-11.634-1.821-2.938-.887-5.978-1.8-11.707-1.877 1.101-3.91 4.161-7.104 8.193-8.25zM50.576 28.487l1.264-1.178v6.872h-1.264v-5.694zm-2.37 7.095h6.005v1.523h-6.006v-1.523zm-1.71 8.931l1.055-1.482c.154-.216.296-.405.425-.577.682-.907 1.132-1.507 1.132-3.068v-.88h4.2v.88c0 1.56.45 2.16 1.132 3.068.13.172.27.36.425.577l1.056 1.481a6.407 6.407 0 011.196 3.74v1.535c-2.74-.045-4.153-.587-5.629-1.165-1.53-.6-3.124-1.212-6.12-1.261a6.394 6.394 0 011.127-2.848zm-1.197 4.246c2.774.04 4.194.584 5.679 1.166 1.532.6 3.13 1.215 6.139 1.262v3.996c0 .023.01.042.012.063-2.385 2.435-3.825 5.755-3.825 9.315a13.28 13.28 0 004.486 9.957H45.299V48.759zM33.02 28.487l1.264-1.178v6.872H33.02v-5.694zm-2.37 7.095h6.005v1.523H30.65v-1.523zm-1.71 8.931l1.056-1.482c.154-.217.295-.405.425-.577.681-.907 1.131-1.507 1.131-3.068v-.88h4.2v.88c0 1.56.45 2.16 1.132 3.068.13.172.272.36.425.577l1.056 1.482a6.407 6.407 0 011.196 3.74v1.534c-2.74-.044-4.153-.586-5.628-1.164-1.53-.6-3.124-1.212-6.12-1.262a6.4 6.4 0 011.126-2.848zm-1.196 4.246c2.774.04 4.193.584 5.679 1.166 1.532.6 3.13 1.215 6.138 1.262v23.33H27.744V48.76z" fill="#DB8C3D"/></svg>