<svg width="166" height="50" viewBox="0 0 166 50" fill="none" xmlns="http://www.w3.org/2000/svg">
<path d="M120.662 48.6511L120.655 48.651L120.648 48.6511L44.6914 48.8445C44.6888 48.8445 44.6862 48.8444 44.6837 48.8444C29.3083 48.6525 14.672 42.3627 3.99182 31.3596C0.362039 27.6201 0.461419 21.6249 4.22898 17.968C15.2935 7.22816 30.1489 1.30186 45.5274 1.49176L45.5348 1.49186H45.5423L121.498 1.29846C121.501 1.29846 121.503 1.29846 121.506 1.29846C136.881 1.49026 151.518 7.78006 162.198 18.7833C165.828 22.5229 165.728 28.518 161.961 32.175C150.896 42.9148 136.041 48.841 120.662 48.6511Z" fill="#FFF5E6" stroke="#382513" stroke-width="2"/>
</svg>
