<svg width="48" height="40" viewBox="0 0 48 40" fill="none" xmlns="http://www.w3.org/2000/svg">
<path d="M47.2492 6.30646C46.6053 5.53391 45.6483 5.09091 44.6238 5.09091H8.03779L7.71107 2.82036C7.4797 1.21255 6.04271 0 4.36844 0H1.49999C0.67162 0 0 0.651273 0 1.45455C0 2.25782 0.67162 2.90909 1.49999 2.90909H4.36844C4.55444 2.90909 4.71418 3.04382 4.73978 3.22245L8.78872 31.3615C9.02009 32.9694 10.4571 34.1818 12.1314 34.1818H13.7578C13.5913 34.6371 13.4998 35.1265 13.4998 35.6364C13.4998 38.0425 15.5185 40 17.9998 40C20.481 40 22.4997 38.0425 22.4997 35.6364C22.4997 35.1265 22.4082 34.6371 22.2417 34.1818H30.2577C30.0912 34.6371 29.9997 35.1265 29.9997 35.6364C29.9997 38.0425 32.0184 40 34.4997 40C36.9809 40 38.9996 38.0425 38.9996 35.6364C38.9996 35.1265 38.9081 34.6371 38.7416 34.1818H41.9997C42.8281 34.1818 43.4997 33.5305 43.4997 32.7273C43.4997 31.924 42.8281 31.2727 41.9997 31.2727H12.1314C11.9454 31.2727 11.7857 31.138 11.7601 30.9594L11.3866 28.3636H40.9272C42.5076 28.3636 43.8956 27.2759 44.2277 25.7765L47.9241 9.04955C48.1389 8.07855 47.8929 7.07873 47.2492 6.30646ZM19.4999 35.6364C19.4999 36.4384 18.8269 37.0909 17.9999 37.0909C17.1728 37.0909 16.4999 36.4384 16.4999 35.6364C16.4999 34.8344 17.1728 34.1818 17.9999 34.1818C18.8269 34.1818 19.4999 34.8343 19.4999 35.6364ZM35.9997 35.6364C35.9997 36.4384 35.3268 37.0909 34.4998 37.0909C33.6727 37.0909 32.9998 36.4384 32.9998 35.6364C32.9998 34.8344 33.6727 34.1818 34.4998 34.1818C35.3268 34.1818 35.9997 34.8343 35.9997 35.6364ZM44.9908 8.43973L41.2944 25.1664C41.2575 25.3333 41.103 25.4545 40.9272 25.4545H10.9679L8.45638 7.99991H44.6237C44.7721 7.99991 44.8646 8.07336 44.916 8.135C44.9672 8.19655 45.0218 8.29936 44.9908 8.43973Z" fill="#382513"/>
</svg>
