<svg width="38" height="32" viewBox="0 0 38 32" fill="none" xmlns="http://www.w3.org/2000/svg">
<path d="M37.4056 5.04516C36.8959 4.42713 36.1383 4.07273 35.3272 4.07273H6.36325L6.1046 2.25629C5.92143 0.970036 4.78381 0 3.45835 0H1.18749C0.531699 0 0 0.521018 0 1.16364C0 1.80625 0.531699 2.32727 1.18749 2.32727H3.45835C3.6056 2.32727 3.73206 2.43505 3.75232 2.57796L6.95774 25.0892C7.14091 26.3755 8.27852 27.3455 9.60399 27.3455H10.8916C10.7598 27.7097 10.6873 28.1012 10.6873 28.5091C10.6873 30.434 12.2855 32 14.2498 32C16.2142 32 17.8123 30.434 17.8123 28.5091C17.8123 28.1012 17.7399 27.7097 17.608 27.3455H23.954C23.8222 27.7097 23.7498 28.1012 23.7498 28.5091C23.7498 30.434 25.3479 32 27.3122 32C29.2766 32 30.8747 30.434 30.8747 28.5091C30.8747 28.1012 30.8023 27.7097 30.6705 27.3455H33.2498C33.9056 27.3455 34.4373 26.8244 34.4373 26.1818C34.4373 25.5392 33.9056 25.0182 33.2498 25.0182H9.60406C9.45681 25.0182 9.33034 24.9104 9.31008 24.7675L9.0144 22.6909H32.4007C33.6519 22.6909 34.7507 21.8207 35.0136 20.6212L37.9399 7.23964C38.1099 6.46284 37.9152 5.66298 37.4056 5.04516ZM15.4374 28.5091C15.4374 29.1507 14.9047 29.6727 14.2499 29.6727C13.5951 29.6727 13.0624 29.1507 13.0624 28.5091C13.0624 27.8675 13.5951 27.3455 14.2499 27.3455C14.9047 27.3455 15.4374 27.8674 15.4374 28.5091ZM28.4998 28.5091C28.4998 29.1507 27.9671 29.6727 27.3123 29.6727C26.6576 29.6727 26.1248 29.1507 26.1248 28.5091C26.1248 27.8675 26.6576 27.3455 27.3123 27.3455C27.9671 27.3455 28.4998 27.8674 28.4998 28.5091ZM35.6177 6.75178L32.6914 20.1331C32.6622 20.2666 32.5399 20.3636 32.4007 20.3636H8.68294L6.69463 6.39993H35.3271C35.4446 6.39993 35.5178 6.45869 35.5585 6.508C35.5991 6.55724 35.6423 6.63949 35.6177 6.75178Z" fill="#382513"/>
</svg>
