<svg width="23" height="20" viewBox="0 0 23 20" fill="none" xmlns="http://www.w3.org/2000/svg">
<path d="M22.6402 3.15323C22.3317 2.76695 21.8732 2.54545 21.3823 2.54545H3.85144L3.69489 1.41018C3.58402 0.606273 2.89546 0 2.09321 0H0.718745C0.321818 0 0 0.325636 0 0.727273C0 1.12891 0.321818 1.45455 0.718745 1.45455H2.09321C2.18233 1.45455 2.25888 1.52191 2.27114 1.61123L4.21126 15.6807C4.32213 16.4847 5.01068 17.0909 5.81294 17.0909H6.59228C6.5125 17.3185 6.46866 17.5632 6.46866 17.8182C6.46866 19.0212 7.43595 20 8.62489 20C9.81383 20 10.7811 19.0212 10.7811 17.8182C10.7811 17.5632 10.7373 17.3185 10.6575 17.0909H14.4985C14.4187 17.3185 14.3749 17.5632 14.3749 17.8182C14.3749 19.0212 15.3421 20 16.5311 20C17.72 20 18.6873 19.0212 18.6873 17.8182C18.6873 17.5632 18.6435 17.3185 18.5637 17.0909H20.1249C20.5218 17.0909 20.8436 16.7653 20.8436 16.3636C20.8436 15.962 20.5218 15.6364 20.1249 15.6364H5.81298C5.72386 15.6364 5.64731 15.569 5.63505 15.4797L5.45608 14.1818H19.611C20.3682 14.1818 21.0333 13.638 21.1924 12.8883L22.9636 4.52477C23.0665 4.03927 22.9487 3.53936 22.6402 3.15323ZM9.34368 17.8182C9.34368 18.2192 9.02124 18.5455 8.62494 18.5455C8.22864 18.5455 7.90619 18.2192 7.90619 17.8182C7.90619 17.4172 8.22864 17.0909 8.62494 17.0909C9.02124 17.0909 9.34368 17.4171 9.34368 17.8182ZM17.2499 17.8182C17.2499 18.2192 16.9274 18.5455 16.5311 18.5455C16.1348 18.5455 15.8124 18.2192 15.8124 17.8182C15.8124 17.4172 16.1348 17.0909 16.5311 17.0909C16.9274 17.0909 17.2499 17.4171 17.2499 17.8182ZM21.5581 4.21986L19.7869 12.5832C19.7692 12.6666 19.6952 12.7272 19.611 12.7272H5.25546L4.05201 3.99995H21.3822C21.4533 3.99995 21.4976 4.03668 21.5222 4.0675C21.5468 4.09827 21.5729 4.14968 21.5581 4.21986Z" fill="#382513"/>
</svg>
