<svg width="23" height="20" fill="none" xmlns="http://www.w3.org/2000/svg"><path d="M22.64 3.153a1.603 1.603 0 00-1.258-.608H3.852L3.694 1.41A1.63 1.63 0 002.093 0H.72A.723.723 0 000 .727c0 .402.322.728.719.728h1.374a.18.18 0 01.178.156l1.94 14.07c.111.804.8 1.41 1.602 1.41h.78c-.08.227-.124.472-.124.727 0 1.203.967 2.182 2.156 2.182s2.156-.979 2.156-2.182c0-.255-.044-.5-.123-.727h3.84c-.08.227-.123.472-.123.727 0 1.203.967 2.182 2.156 2.182s2.156-.979 2.156-2.182c0-.255-.044-.5-.123-.727h1.56a.723.723 0 00.72-.727.723.723 0 00-.72-.728H5.814a.181.181 0 01-.178-.156l-.179-1.298h14.155a1.63 1.63 0 001.581-1.294l1.772-8.363a1.643 1.643 0 00-.324-1.372zM9.344 17.818a.724.724 0 01-.72.727.724.724 0 01-.718-.727c0-.4.323-.727.719-.727.396 0 .719.326.719.727zm7.906 0a.724.724 0 01-.719.727.724.724 0 01-.719-.727c0-.4.323-.727.72-.727.395 0 .718.326.718.727zM21.558 4.22l-1.771 8.363a.181.181 0 01-.176.144H5.255L4.052 4h17.33a.181.181 0 01.176.22z" fill="#fff"/></svg>