<svg width="25" height="25" fill="none" xmlns="http://www.w3.org/2000/svg"><g clip-path="url(#clip0)" fill="#382513"><path d="M20.609 7.051H4.39a.641.641 0 00-.48.16.545.545 0 00-.16.482L5.416 22.21a3.173 3.173 0 003.173 2.789h8.077a3.173 3.173 0 003.205-2.885L21.25 7.628a.545.545 0 00-.16-.416.64.64 0 00-.481-.16zm-2.02 15a1.859 1.859 0 01-1.922 1.667H8.59a1.827 1.827 0 01-1.891-1.635L5.096 8.333h14.808L18.59 22.052zm4.359-19.166h-6.602V1.859A1.795 1.795 0 0014.519 0H10.48a1.795 1.795 0 00-1.826 1.86v1.025H2.05a.641.641 0 100 1.282h20.897a.641.641 0 000-1.282zm-7.884-1.026v1.026H9.936V1.859a.513.513 0 01.544-.577h4.039a.513.513 0 01.545.577z"/></g><defs><clipPath id="clip0"><path fill="#fff" d="M0 0h25v25H0z"/></clipPath></defs></svg>