<svg width="32" height="32" fill="none" xmlns="http://www.w3.org/2000/svg"><path d="M31.085 4.375a1.206 1.206 0 00-1.705-.002l-14.468 14.43-5.22-5.67a1.207 1.207 0 00-1.775 1.634l6.07 6.593c.223.241.534.381.862.388h.026c.319 0 .625-.126.851-.351L31.083 6.08c.472-.47.473-1.234.002-1.705z" fill="#fff"/><path d="M30.794 14.794c-.666 0-1.206.54-1.206 1.206 0 7.493-6.095 13.588-13.588 13.588-7.492 0-13.588-6.095-13.588-13.588C2.412 8.508 8.508 2.412 16 2.412A1.206 1.206 0 1016 0C7.178 0 0 7.178 0 16s7.178 16 16 16 16-7.178 16-16c0-.666-.54-1.206-1.206-1.206z" fill="#fff"/></svg>