<svg width="32" height="32" fill="none" xmlns="http://www.w3.org/2000/svg"><path d="M18.58 31.792zm.32-.055l-.191.034.191-.034zm-1.079.159zm.307-.038zm1.208-.208zm1.08-.268l-.136.038.136-.038zm-.326.09l-.149.038.149-.038zm-.428.106l-.158.035.158-.035zm-2.316.365zM32 16c0-8.835-7.165-16-16-16S0 7.165 0 16s7.165 16 16 16c.094 0 .188-.002.281-.004V19.541h-3.437v-4.006h3.437v-2.948c0-3.419 2.087-5.28 5.137-5.28 1.46 0 2.716.109 3.082.158v3.573h-2.103c-1.66 0-1.98.788-1.98 1.945v2.552h3.967l-.517 4.006h-3.45v11.84C27.104 29.466 32 23.304 32 16zM17.057 31.964zm-.51.026z" fill="#fff"/></svg>