<svg width="25" height="25" viewBox="0 0 25 25" fill="none" xmlns="http://www.w3.org/2000/svg">
<g clip-path="url(#clip0)">
<path d="M20.6088 7.0515H4.39131C4.21586 7.03659 4.04201 7.09456 3.91054 7.21173C3.78128 7.3359 3.72141 7.51564 3.7503 7.69251L5.41691 22.2113C5.61236 23.812 6.97732 25.0116 8.58987 24.9997H16.6666C18.3245 25.0233 19.7211 23.7664 19.8716 22.1152L21.2498 7.6284C21.2583 7.47301 21.2 7.32136 21.0895 7.21173C20.9581 7.09456 20.7843 7.03659 20.6088 7.0515ZM18.5897 22.0511C18.4889 23.0271 17.647 23.7567 16.6666 23.7177H8.58993C7.62716 23.7568 6.7996 23.0414 6.69893 22.0831L5.09643 8.33352H19.9037L18.5897 22.0511Z" fill="#382513"/>
<path d="M22.9481 2.88489H16.3456V1.85924C16.3812 0.868612 15.607 0.0367535 14.6164 0.00117247C14.5839 6.88995e-06 14.5513 -0.000299843 14.5188 0.000313623H10.4804C9.48931 -0.018029 8.67107 0.770519 8.65273 1.76163C8.65211 1.79415 8.65242 1.82672 8.65359 1.85924V2.88483H2.05117C1.69714 2.88483 1.41016 3.17181 1.41016 3.52584C1.41016 3.87987 1.69714 4.16685 2.05117 4.16685H22.9481C23.3021 4.16685 23.5891 3.87987 23.5891 3.52584C23.5891 3.17181 23.302 2.88489 22.9481 2.88489ZM15.0636 1.85924V2.88483H9.93555V1.85924C9.89941 1.57833 10.0979 1.32135 10.3788 1.28522C10.4125 1.28086 10.4465 1.27994 10.4804 1.28233H14.5187C14.8012 1.26233 15.0465 1.47508 15.0665 1.75765C15.069 1.79151 15.068 1.82556 15.0636 1.85924Z" fill="#382513"/>
</g>
<defs>
<clipPath id="clip0">
<rect width="25" height="25" fill="white"/>
</clipPath>
</defs>
</svg>
