<svg width="52" height="38" viewBox="0 0 52 38" fill="none" xmlns="http://www.w3.org/2000/svg">
<path d="M12.1342 28.9523C10.6983 28.9523 9.53418 30.1676 9.53418 31.6666C9.53418 33.1656 10.6982 34.3809 12.1342 34.3809C13.5702 34.3809 14.7342 33.1657 14.7342 31.6666C14.7326 30.1682 13.5695 28.9539 12.1342 28.9523ZM12.1342 32.5713C11.6555 32.5713 11.2675 32.1663 11.2675 31.6666C11.2675 31.1669 11.6555 30.7619 12.1342 30.7619C12.6128 30.7619 13.0008 31.1669 13.0008 31.6666C13.0003 32.1661 12.6126 32.5708 12.1342 32.5713Z" fill="#382513"/>
<path d="M39.8666 28.9523C38.4307 28.9523 37.2666 30.1676 37.2666 31.6666C37.2666 33.1656 38.4307 34.3809 39.8666 34.3809C41.3025 34.3809 42.4666 33.1657 42.4666 31.6666C42.4651 30.1682 41.3019 28.9539 39.8666 28.9523ZM39.8666 32.5713C39.3879 32.5713 39 32.1663 39 31.6666C39 31.1669 39.388 30.7619 39.8666 30.7619C40.3453 30.7619 40.7332 31.1669 40.7332 31.6666C40.7328 32.1661 40.3451 32.5708 39.8666 32.5713Z" fill="#382513"/>
<path d="M51.3394 16.0736L45.3693 9.05466C44.8747 8.47321 44.165 8.14124 43.4201 8.14283H35.5334V2.71428C35.5318 1.21591 34.3686 0.0015904 32.9334 0H2.6C1.16472 0.0015904 0.00152352 1.21591 8.46389e-08 2.71428V26.2381C-0.000101478 26.478 0.0912032 26.7082 0.253805 26.8779C0.416305 27.0476 0.636797 27.1429 0.866735 27.1429H1.73337V29.8572C1.73489 31.3555 2.89809 32.5699 4.33337 32.5714H6.1359C6.56307 35.6865 9.11899 38 12.1334 38C15.1477 38 17.7037 35.6865 18.1308 32.5714H33.8694C34.2965 35.6865 36.8525 38 39.8668 38C42.8812 38 45.4371 35.6865 45.8643 32.5714H49.4C50.8353 32.5699 51.9985 31.3555 52 29.8572V17.8779C51.9994 17.2121 51.7643 16.57 51.3394 16.0736ZM1.73337 25.3332V2.71428C1.73387 2.21479 2.12154 1.80998 2.6 1.80955H32.9334C33.4118 1.81008 33.7996 2.21479 33.8 2.71428V25.3332H1.73337ZM6.1359 30.7618H4.33337C3.85491 30.7613 3.46714 30.3565 3.46673 29.8571V27.1428H7.89588C6.94383 28.1142 6.32521 29.3862 6.1359 30.7618ZM12.1334 36.1903C9.74015 36.1903 7.8 34.1649 7.8 31.6665C7.8 29.1681 9.74015 27.1428 12.1334 27.1428C14.5266 27.1428 16.4667 29.1682 16.4667 31.6666C16.4639 34.1637 14.5254 36.1875 12.1334 36.1903ZM20.8 30.7618H18.1307C17.9414 29.3862 17.3229 28.1141 16.3709 27.1428H20.8V30.7618ZM28.6 30.7618H22.5334V27.1428H28.6V30.7618ZM33.8693 30.7618H30.3334V27.1428H35.6291C34.6771 28.1142 34.0586 29.3862 33.8693 30.7618ZM39.8666 36.1903C37.4734 36.1903 35.5333 34.1649 35.5333 31.6665C35.5333 29.1681 37.4733 27.1427 39.8666 27.1427C42.2598 27.1427 44.2 29.1681 44.2 31.6665C44.1972 34.1638 42.2587 36.1875 39.8666 36.1903ZM50.2666 29.8571C50.2661 30.3565 49.8785 30.7614 49.4 30.7618H45.8641C45.432 27.6496 42.8791 25.3388 39.8666 25.3332H35.5333V9.95239H39V18.9999C39.0015 20.4983 40.1647 21.7126 41.6 21.7142H50.2666V29.8571ZM50.2666 19.9047H41.6C41.1215 19.9041 40.7338 19.4994 40.7334 18.9999V9.95239H43.4201C43.6689 9.9509 43.9064 10.061 44.0722 10.2546L50.0445 17.2762C50.1867 17.4416 50.2657 17.6556 50.2667 17.8779V19.9047H50.2666Z" fill="#382513"/>
</svg>
