<svg width="52" height="38" fill="none" xmlns="http://www.w3.org/2000/svg"><path d="M12.134 28.952c-1.436 0-2.6 1.216-2.6 2.715 0 1.499 1.164 2.714 2.6 2.714 1.436 0 2.6-1.215 2.6-2.714-.001-1.499-1.165-2.713-2.6-2.715zm0 3.62c-.479 0-.867-.406-.867-.905 0-.5.389-.905.867-.905.479 0 .867.405.867.905s-.388.904-.867.904zm27.733-3.62c-1.436 0-2.6 1.216-2.6 2.715 0 1.499 1.164 2.714 2.6 2.714 1.436 0 2.6-1.215 2.6-2.714-.002-1.499-1.165-2.713-2.6-2.715zm0 3.62c-.48 0-.867-.406-.867-.905 0-.5.388-.905.867-.905.478 0 .866.405.866.905s-.388.904-.866.904z" fill="#382513"/><path d="M51.34 16.074l-5.97-7.02a2.553 2.553 0 00-1.95-.911h-7.887V2.714C35.532 1.216 34.37.002 32.933 0H2.6C1.165.002.002 1.216 0 2.714v23.524c0 .24.091.47.254.64.162.17.383.265.613.265h.866v2.714c.002 1.498 1.165 2.713 2.6 2.714h1.803C6.563 35.687 9.119 38 12.133 38c3.015 0 5.57-2.313 5.998-5.429h15.738C34.297 35.687 36.852 38 39.867 38c3.014 0 5.57-2.313 5.997-5.429H49.4c1.435-.001 2.599-1.215 2.6-2.714v-11.98a2.78 2.78 0 00-.66-1.803zm-49.607 9.26V2.713c0-.5.389-.904.867-.904h30.333c.479 0 .867.405.867.904v22.62H1.733zm4.403 5.428H4.333c-.478 0-.866-.405-.866-.905v-2.714h4.429a6.419 6.419 0 00-1.76 3.619zm5.997 5.428c-2.393 0-4.333-2.025-4.333-4.523 0-2.499 1.94-4.524 4.333-4.524 2.394 0 4.334 2.025 4.334 4.524-.003 2.497-1.942 4.52-4.334 4.523zm8.667-5.428h-2.67a6.419 6.419 0 00-1.76-3.62h4.43v3.62zm7.8 0h-6.067v-3.62H28.6v3.62zm5.27 0h-3.537v-3.62h5.296a6.419 6.419 0 00-1.76 3.62zm5.997 5.428c-2.394 0-4.334-2.025-4.334-4.523 0-2.499 1.94-4.524 4.334-4.524 2.393 0 4.333 2.025 4.333 4.523-.003 2.498-1.941 4.521-4.333 4.524zm10.4-6.333c0 .5-.389.904-.867.905h-3.536c-.432-3.112-2.985-5.423-5.997-5.429h-4.334V9.953H39V19c.002 1.498 1.165 2.713 2.6 2.714h8.667v8.143zm0-9.952H41.6c-.479 0-.866-.406-.867-.905V9.952h2.687a.852.852 0 01.652.303l5.972 7.021a.93.93 0 01.223.602v2.027z" fill="#382513"/></svg>