<svg width="38" height="32" fill="none" xmlns="http://www.w3.org/2000/svg"><path d="M37.406 5.045a2.682 2.682 0 00-2.079-.972H6.363l-.258-1.817C5.92.97 4.784 0 3.458 0h-2.27C.531 0 0 .521 0 1.164c0 .642.532 1.163 1.187 1.163h2.271c.148 0 .274.108.294.251l3.206 22.511c.183 1.287 1.32 2.257 2.646 2.257h1.288a3.412 3.412 0 00-.205 1.163c0 1.925 1.599 3.491 3.563 3.491 1.964 0 3.562-1.566 3.562-3.49 0-.409-.072-.8-.204-1.165h6.346a3.412 3.412 0 00-.204 1.164c0 1.925 1.598 3.491 3.562 3.491 1.965 0 3.563-1.566 3.563-3.49 0-.409-.073-.8-.204-1.165h2.579c.656 0 1.187-.52 1.187-1.163s-.531-1.164-1.187-1.164H9.604a.296.296 0 01-.294-.25l-.296-2.077h23.387c1.25 0 2.35-.87 2.613-2.07L37.94 7.24a2.567 2.567 0 00-.534-2.195zM15.437 28.51c0 .642-.532 1.164-1.187 1.164a1.177 1.177 0 01-1.188-1.164c0-.642.533-1.163 1.188-1.163.655 0 1.187.521 1.187 1.163zm13.063 0c0 .642-.533 1.164-1.188 1.164a1.177 1.177 0 01-1.187-1.164c0-.642.533-1.163 1.187-1.163.655 0 1.188.521 1.188 1.163zm7.118-21.757l-2.928 13.38a.298.298 0 01-.29.23H8.683L6.695 6.4h28.632c.118 0 .19.059.232.108.04.05.083.131.059.244z" fill="#382513"/></svg>