<svg width="48" height="40" fill="none" xmlns="http://www.w3.org/2000/svg"><path d="M47.25 6.306a3.402 3.402 0 00-2.626-1.215H8.038L7.71 2.82C7.48 1.212 6.043 0 4.368 0H1.5C.672 0 0 .651 0 1.455c0 .803.672 1.454 1.5 1.454h2.868c.186 0 .346.135.372.313l4.049 28.14c.231 1.607 1.668 2.82 3.342 2.82h1.627a4.225 4.225 0 00-.258 1.454C13.5 38.042 15.518 40 18 40c2.481 0 4.5-1.958 4.5-4.364 0-.51-.092-.999-.258-1.454h8.016A4.225 4.225 0 0030 35.636C30 38.042 32.018 40 34.5 40c2.48 0 4.5-1.958 4.5-4.364 0-.51-.092-.999-.258-1.454H42c.828 0 1.5-.651 1.5-1.455 0-.803-.672-1.454-1.5-1.454H12.13a.373.373 0 01-.37-.314l-.374-2.595h29.54c1.58 0 2.969-1.088 3.3-2.588L47.925 9.05a3.184 3.184 0 00-.675-2.744zM19.5 35.636c0 .802-.673 1.455-1.5 1.455s-1.5-.653-1.5-1.455.673-1.454 1.5-1.454 1.5.652 1.5 1.454zm16.5 0c0 .802-.673 1.455-1.5 1.455s-1.5-.653-1.5-1.455.673-1.454 1.5-1.454 1.5.652 1.5 1.454zM44.99 8.44l-3.696 16.726a.375.375 0 01-.367.288h-29.96L8.458 8h36.167a.369.369 0 01.367.44z" fill="#382513"/><path d="M47.25 6.306a3.402 3.402 0 00-2.626-1.215H8.038L7.71 2.82C7.48 1.212 6.043 0 4.368 0H1.5C.672 0 0 .651 0 1.455c0 .803.672 1.454 1.5 1.454h2.868c.186 0 .346.135.372.313l4.049 28.14c.231 1.607 1.668 2.82 3.342 2.82h1.627a4.225 4.225 0 00-.258 1.454C13.5 38.042 15.518 40 18 40c2.481 0 4.5-1.958 4.5-4.364 0-.51-.092-.999-.258-1.454h8.016A4.225 4.225 0 0030 35.636C30 38.042 32.018 40 34.5 40c2.48 0 4.5-1.958 4.5-4.364 0-.51-.092-.999-.258-1.454H42c.828 0 1.5-.651 1.5-1.455 0-.803-.672-1.454-1.5-1.454H12.13a.373.373 0 01-.37-.314l-.374-2.595h29.54c1.58 0 2.969-1.088 3.3-2.588L47.925 9.05a3.184 3.184 0 00-.675-2.744zM19.5 35.636c0 .802-.673 1.455-1.5 1.455s-1.5-.653-1.5-1.455.673-1.454 1.5-1.454 1.5.652 1.5 1.454zm16.5 0c0 .802-.673 1.455-1.5 1.455s-1.5-.653-1.5-1.455.673-1.454 1.5-1.454 1.5.652 1.5 1.454zM44.99 8.44l-3.696 16.726a.375.375 0 01-.367.288h-29.96L8.458 8h36.167a.369.369 0 01.367.44z" stroke="#fff"/></svg>