<svg width="106" height="105" viewBox="0 0 106 105" fill="none" xmlns="http://www.w3.org/2000/svg">
<path d="M105.5 52.5C105.5 81.2143 81.9994 104.5 53 104.5C24.0006 104.5 0.5 81.2143 0.5 52.5C0.5 23.7857 24.0006 0.5 53 0.5C81.9994 0.5 105.5 23.7857 105.5 52.5Z" fill="white" stroke="#DB8C3D"/>
<path d="M70.8288 53.3319C72.8769 54.0956 74.6793 55.4136 76.0421 57.1418C76.1702 57.3042 76.3634 57.4015 76.5699 57.4078C76.5769 57.4078 76.5846 57.4078 76.5916 57.4078C76.7904 57.4078 76.9808 57.3231 77.1138 57.174C77.7927 56.4138 78.1665 55.4367 78.1665 54.4224C78.1665 52.1413 76.3109 50.2856 74.0297 50.2856C72.578 50.2856 71.2152 51.0647 70.4718 52.3183C70.3661 52.4968 70.3451 52.7124 70.4137 52.9084C70.4823 53.1044 70.6349 53.2591 70.8288 53.3319ZM74.0297 51.6856C75.5388 51.6856 76.7666 52.9133 76.7666 54.4224C76.7666 54.813 76.6826 55.1952 76.5237 55.5452C75.3072 54.2083 73.8379 53.1338 72.2021 52.3855C72.6963 51.939 73.3395 51.6856 74.0297 51.6856Z" fill="#DB8C3D"/>
<path d="M25.7028 80.9966H80.3001C80.6865 80.9966 81.0001 80.6831 81.0001 80.2967V75.2177C81.0001 74.8313 80.6865 74.5178 80.3001 74.5178H75.4248C78.259 72.0084 79.9109 68.4036 79.9109 64.5614C79.9109 62.8619 79.5938 61.2093 78.9681 59.6421C80.5535 58.0441 81.273 55.7993 80.9035 53.5391C80.417 50.5649 77.9867 48.1948 74.9944 47.7749C73.3753 47.5481 71.7591 47.882 70.3928 48.703V47.4487C71.2159 47.3689 71.8963 46.727 71.9775 45.9221C72.0258 45.4405 71.8676 44.9596 71.5442 44.6019C71.2208 44.2442 70.7589 44.0391 70.2766 44.0391H69.9259V41.4367C69.9259 41.0503 69.6123 40.7367 69.2259 40.7367H63.6241C63.2377 40.7367 62.9241 41.0503 62.9241 41.4367V44.0391H61.5235C61.0006 44.0391 60.5289 44.3282 60.2902 44.793C60.0522 45.2578 60.0935 45.8101 60.3987 46.2342C60.4267 46.2727 60.4575 46.3077 60.4925 46.3399L61.8875 47.6244C62.2487 47.9576 62.4559 48.43 62.4559 48.9214V51.9236C61.0076 52.3988 59.6847 53.1198 58.5158 54.0221V48.2529C58.5158 46.6115 58.0125 45.038 57.0598 43.7011L56.0036 42.2192C55.8426 41.9924 55.6935 41.7951 55.5577 41.6145C54.9382 40.7892 54.7065 40.4805 54.7065 39.3865V38.4737C55.2224 38.3547 55.6095 37.8934 55.6095 37.3419V35.3463C55.6095 34.7044 55.0873 34.1829 54.4462 34.1829H53.2387V25.7C53.2387 25.4215 53.0735 25.1695 52.818 25.0582C52.5632 24.9469 52.2651 24.998 52.0614 25.1884L49.3973 27.6711C49.2552 27.8034 49.1747 27.9889 49.1747 28.1828V34.1822H47.968C47.3261 34.1822 46.8039 34.7044 46.8039 35.3456V37.3412C46.8039 37.8927 47.1903 38.354 47.7069 38.473V39.3858C47.7069 40.4798 47.4752 40.7885 46.8557 41.6138C46.7199 41.7944 46.5715 41.9924 46.4099 42.2185L45.3536 43.7011C44.4017 45.0373 43.8977 46.6115 43.8977 48.2522V74.5178H40.9592V48.2522C40.9592 46.6108 40.4559 45.0373 39.5033 43.7011L38.447 42.2185C38.2861 41.9917 38.137 41.7937 38.0012 41.6131C37.3817 40.7885 37.15 40.4798 37.15 39.3858V38.473C37.6666 38.354 38.0537 37.8927 38.0537 37.3412V35.3456C38.0537 34.7037 37.5315 34.1822 36.8896 34.1822H35.6829V25.7C35.6829 25.4215 35.5177 25.1695 35.2622 25.0582C35.0067 24.9469 34.7092 24.998 34.5055 25.1884L31.8415 27.6711C31.6994 27.8034 31.6189 27.9889 31.6189 28.1828V34.1822H30.4114C29.7696 34.1822 29.2474 34.7044 29.2474 35.3456V37.3412C29.2474 37.8927 29.6345 38.354 30.1503 38.473V39.3858C30.1503 40.4791 29.9187 40.7878 29.2992 41.6131C29.1634 41.7937 29.0143 41.9924 28.8533 42.2185L27.7971 43.7011C26.8451 45.0373 26.3411 46.6115 26.3411 48.2522V74.5178H25.7C25.3136 74.5178 25 74.8313 25 75.2177V80.2967C25.0028 80.6838 25.3164 80.9966 25.7028 80.9966ZM79.6001 79.5967H26.4027V75.9177H79.6001V79.5967ZM73.2122 74.4653C73.1905 74.48 73.1793 74.5017 73.1597 74.5185H60.0557C60.0361 74.5024 60.0249 74.48 60.0032 74.4653C56.6853 72.2478 54.7044 68.5449 54.7044 64.5621C54.7044 63.9518 54.7569 63.3512 54.8479 62.7604C60.5611 62.8073 63.4316 63.6683 66.4569 64.581C69.4268 65.477 72.5032 66.3996 78.3542 66.4597C77.832 69.6985 75.9953 72.6047 73.2122 74.4653ZM64.3241 42.1366H68.526V44.0391H64.3241V42.1366ZM63.3483 53.1142C63.6493 53.0288 63.8572 52.7537 63.8572 52.4408V48.9214C63.8572 48.0401 63.4855 47.1918 62.8367 46.5947L61.5816 45.4391H70.2773C70.397 45.4391 70.4726 45.5028 70.5069 45.5413C70.5412 45.5791 70.5972 45.661 70.5846 45.7828C70.5699 45.9319 70.4026 46.0578 70.2199 46.0578H69.6935C69.3071 46.0578 68.9935 46.3714 68.9935 46.7578V50.1029C68.9935 50.3815 69.1587 50.6335 69.4142 50.7448C69.669 50.8561 69.9665 50.805 70.1709 50.6146C71.4168 49.4534 73.1023 48.9242 74.8005 49.1615C77.1922 49.4968 79.1339 51.3902 79.5231 53.7659C79.8423 55.716 79.1515 57.6493 77.6745 58.9386C77.4435 59.1402 77.3707 59.4692 77.4946 59.7492C78.1694 61.2723 78.5117 62.892 78.5117 64.5621C78.5117 64.7294 78.5033 64.8953 78.4963 65.0612C72.7657 65.0164 69.8916 64.1541 66.8615 63.2406C63.9244 62.3544 60.8837 61.4417 55.1552 61.364C56.2563 57.4547 59.3165 54.26 63.3483 53.1142ZM50.576 28.4873L51.8402 27.3086V34.1815H50.576V28.4873ZM48.2053 35.5822H54.211V37.1053H48.2053V35.5822ZM46.4953 44.513L47.5515 43.0305C47.7055 42.8149 47.8469 42.6259 47.9764 42.4537C48.6581 41.5466 49.1082 40.9467 49.1082 39.3858V38.5052H53.308V39.3858C53.308 40.9467 53.7581 41.5466 54.4399 42.4537C54.5694 42.6259 54.7107 42.8149 54.8647 43.0305L55.921 44.5123C56.7036 45.6106 57.1165 46.9034 57.1165 48.2515V49.7866C54.3769 49.7418 52.9643 49.2 51.4881 48.6218C49.9587 48.0226 48.3642 47.4102 45.3676 47.3605C45.509 46.3385 45.887 45.3663 46.4953 44.513ZM45.299 48.759C48.073 48.7982 49.4925 49.3435 50.9778 49.9252C52.5101 50.5257 54.1074 51.1396 57.1165 51.1865V55.1833C57.1165 55.2057 57.127 55.2246 57.1291 55.2463C54.7443 57.6808 53.3038 61.0014 53.3038 64.5614C53.3038 68.4036 54.955 72.0084 57.7899 74.5178H45.299V48.759ZM33.0202 28.4873L34.2843 27.3086V34.1815H33.0202V28.4873ZM30.6494 35.5822H36.6551V37.1053H30.6494V35.5822ZM28.9394 44.513L29.9957 43.0305C30.1496 42.8142 30.291 42.6259 30.4205 42.4537C31.1023 41.5466 31.5524 40.9467 31.5524 39.3858V38.5052H35.7522V39.3858C35.7522 40.9467 36.2023 41.5459 36.884 42.4537C37.0135 42.6259 37.1556 42.8149 37.3089 43.0305L38.3651 44.513C39.1477 45.6113 39.5607 46.9041 39.5607 48.2522V49.7873C36.821 49.7425 35.4085 49.2007 33.933 48.6225C32.4035 48.0233 30.809 47.4109 27.8125 47.3612C27.9539 46.3385 28.3318 45.3663 28.9394 44.513ZM27.7439 48.759C30.5185 48.7982 31.9374 49.3435 33.4227 49.9252C34.9549 50.5257 36.5522 51.1396 39.5614 51.1865V74.5178H27.7439V48.759Z" fill="#DB8C3D"/>
</svg>
