<svg width="105" height="105" viewBox="0 0 105 105" fill="none" xmlns="http://www.w3.org/2000/svg">
<circle cx="52.5" cy="52.5" r="52" fill="white" stroke="#DB8C3D"/>
<path d="M80.2993 25H46.6993C46.3124 25 45.9993 25.3134 45.9993 25.7V32.053H25.7C25.3131 32.053 25 32.3664 25 32.753V80.3C25 80.6866 25.3131 81 25.7 81H59.3C59.6869 81 60 80.6866 60 80.3V73.947H80.2993C80.6862 73.947 80.9993 73.6336 80.9993 73.247V25.7C80.9993 25.3134 80.6862 25 80.2993 25ZM26.4 33.453H45.9993V73.247C45.9993 73.2806 46.0138 73.3094 46.0184 73.3417C46.0249 73.3876 46.0302 73.4318 46.0454 73.4755C46.0613 73.521 46.0846 73.5601 46.109 73.6007C46.1305 73.6368 46.1504 73.6717 46.1785 73.7037C46.2125 73.7426 46.2525 73.7721 46.2942 73.8027C46.3177 73.8199 46.3335 73.844 46.3596 73.8585L56.6731 79.6H26.4V33.453ZM58.6 79.0707L49.3963 73.947H58.6V79.0707ZM79.5993 72.547H47.3993V26.4H79.5993V72.547Z" fill="#DB8C3D"/>
<path d="M39.9325 40.2151H32.3494C31.9625 40.2151 31.6494 40.5285 31.6494 40.9151C31.6494 41.3017 31.9625 41.6151 32.3494 41.6151H39.9325C40.3194 41.6151 40.6325 41.3017 40.6325 40.9151C40.6325 40.5285 40.3194 40.2151 39.9325 40.2151Z" fill="#DB8C3D"/>
<path d="M39.9325 46.5684H32.3494C31.9625 46.5684 31.6494 46.8818 31.6494 47.2684C31.6494 47.655 31.9625 47.9684 32.3494 47.9684H39.9325C40.3194 47.9684 40.6325 47.655 40.6325 47.2684C40.6325 46.8818 40.3194 46.5684 39.9325 46.5684Z" fill="#DB8C3D"/>
<path d="M39.9325 52.9214H32.3494C31.9625 52.9214 31.6494 53.2348 31.6494 53.6214C31.6494 54.008 31.9625 54.3214 32.3494 54.3214H39.9325C40.3194 54.3214 40.6325 54.008 40.6325 53.6214C40.6325 53.2348 40.3194 52.9214 39.9325 52.9214Z" fill="#DB8C3D"/>
<path d="M39.9325 59.2747H32.3494C31.9625 59.2747 31.6494 59.5881 31.6494 59.9747C31.6494 60.3613 31.9625 60.6747 32.3494 60.6747H39.9325C40.3194 60.6747 40.6325 60.3613 40.6325 59.9747C40.6325 59.5881 40.3194 59.2747 39.9325 59.2747Z" fill="#DB8C3D"/>
<path d="M39.9325 65.6277H32.3494C31.9625 65.6277 31.6494 65.9411 31.6494 66.3277C31.6494 66.7143 31.9625 67.0277 32.3494 67.0277H39.9325C40.3194 67.0277 40.6325 66.7143 40.6325 66.3277C40.6325 65.9411 40.3194 65.6277 39.9325 65.6277Z" fill="#DB8C3D"/>
<path d="M39.9325 71.981H32.3494C31.9625 71.981 31.6494 72.2944 31.6494 72.681C31.6494 73.0676 31.9625 73.381 32.3494 73.381H39.9325C40.3194 73.381 40.6325 73.0676 40.6325 72.681C40.6325 72.2944 40.3194 71.981 39.9325 71.981Z" fill="#DB8C3D"/>
<path d="M53.7576 47.7322V59.9224C53.7576 61.2219 54.8152 62.2794 56.1147 62.2794H70.883C72.1825 62.2794 73.2401 61.2219 73.2401 59.9224V47.7322C74.8841 46.4358 75.7516 44.4438 75.5732 42.3322C75.5732 42.3318 75.5732 42.3318 75.5732 42.3318C75.3107 39.2328 72.7656 36.7999 69.6526 36.6727C68.7905 36.6351 67.9552 36.7759 67.1615 37.0842C66.2168 37.4506 65.1237 37.6212 63.7203 37.6212H63.2767C61.8739 37.6212 60.7809 37.4506 59.8361 37.0842C59.0418 36.7756 58.2037 36.6344 57.3451 36.6727C54.232 36.7995 51.687 39.2321 51.4245 42.3315C51.2454 44.4435 52.1129 46.4354 53.7576 47.7322ZM52.8191 42.4498C53.0194 40.091 55.0319 38.1681 57.4026 38.0713C57.4695 38.0686 57.5365 38.0672 57.6035 38.0672C58.1989 38.0672 58.7786 38.1752 59.3303 38.3892C60.4411 38.8206 61.6948 39.0212 63.2767 39.0212H63.7203C65.3022 39.0212 66.5566 38.8206 67.6674 38.3892C68.2813 38.1513 68.9327 38.0443 69.5951 38.0713C71.9658 38.1684 73.9783 40.0917 74.1786 42.4498C74.3249 44.1833 73.5627 45.812 72.1388 46.8066C71.9515 46.9375 71.8401 47.1519 71.8401 47.3805V59.9224C71.8401 60.4501 71.4108 60.8794 70.883 60.8794H56.1147C55.5869 60.8794 55.1576 60.4501 55.1576 59.9224V47.3805C55.1576 47.1519 55.0462 46.9375 54.8589 46.8066C53.435 45.8117 52.6721 44.183 52.8191 42.4498Z" fill="#DB8C3D"/>
</svg>
