<svg width="106" height="105" viewBox="0 0 106 105" fill="none" xmlns="http://www.w3.org/2000/svg">
<path d="M105.5 52.5C105.5 81.2143 81.9994 104.5 53 104.5C24.0006 104.5 0.5 81.2143 0.5 52.5C0.5 23.7857 24.0006 0.5 53 0.5C81.9994 0.5 105.5 23.7857 105.5 52.5Z" fill="white" stroke="#DB8C3D"/>
<path d="M50.5115 32.3982C50.3583 32.3982 46.3767 31.557 43.4671 33.3924C43.6202 32.8571 43.6968 32.2453 43.6968 31.6335C43.6968 27.8861 40.2511 24.9035 40.098 24.7506C39.7917 24.5211 39.4089 24.5211 39.1026 24.7506C38.9494 24.9035 35.5038 27.8096 35.5038 31.6335C35.5038 32.2453 35.5804 32.8571 35.7335 33.3924C32.7473 31.557 28.8423 32.3217 28.6126 32.3217C28.2297 32.3982 28 32.7041 28 33.0865C28 33.2395 28.1531 37.2163 30.6034 39.6635C29.4548 39.6635 28.6891 39.8165 28.6126 39.8929C28.2297 39.9694 28 40.2753 28 40.6577C28 40.8107 28.1531 44.7874 30.6034 47.2347C29.4548 47.2347 28.6891 47.3876 28.6126 47.4641C28.2297 47.5406 28 47.8465 28 48.2289C28 48.3818 28.1531 52.3586 30.6034 54.8059C29.4548 54.8059 28.6891 54.9588 28.6126 55.0353C28.2297 55.1118 28 55.4177 28 55.8001C28 56.0295 28.2297 60.5416 31.1394 62.8359C31.2159 62.8359 31.2159 62.9124 31.2925 62.9124C29.8377 62.8359 28.6891 63.0653 28.6126 63.0653C28.2297 63.1418 28 63.4477 28 63.8301C28 64.0595 28.2297 68.5717 31.1394 70.866C32.8239 72.1661 34.9678 72.472 36.5758 72.472C37.7243 72.472 38.6432 72.319 38.7963 72.2425V79.8137C38.7963 80.2726 39.1026 80.5785 39.562 80.5785C40.0214 80.5785 40.3277 80.2726 40.3277 79.8137V72.2425C40.5574 72.319 41.3997 72.3955 42.4716 72.3955C44.0796 72.3955 46.2236 72.0896 47.9081 70.7895C50.8943 68.4187 51.0474 63.9066 51.0474 63.7536C51.0474 63.3713 50.8177 63.0653 50.4349 62.9889C50.3583 62.9889 49.2098 62.7594 47.7549 62.8359C47.8315 62.8359 47.8315 62.7594 47.9081 62.7594C50.8943 60.3887 51.0474 55.8765 51.0474 55.7236C51.0474 55.3412 50.8177 55.0353 50.4349 54.9588C50.3583 54.9588 49.5926 54.8059 48.4441 54.7294C50.8943 52.2821 51.0474 48.3818 51.0474 48.1524C51.0474 47.77 50.8177 47.4641 50.4349 47.3876C50.3583 47.3876 49.5926 47.2347 48.4441 47.1582C50.8943 44.711 51.0474 40.8107 51.0474 40.5812C51.0474 40.1988 50.8177 39.8929 50.4349 39.8165C50.3583 39.8165 49.5926 39.6635 48.4441 39.587C50.8943 37.1398 51.0474 33.2395 51.0474 33.01C51.124 32.7806 50.8943 32.4747 50.5115 32.3982ZM38.8729 60.2357C38.49 59.0886 37.8775 57.8649 36.8821 56.9472C37.954 56.9472 38.7197 56.7943 38.8729 56.7943V60.2357ZM38.8729 52.741C38.49 51.5939 37.8775 50.3702 36.8821 49.376C37.954 49.376 38.7197 49.2231 38.8729 49.2231V52.741ZM38.8729 45.1698C38.49 44.0227 37.8775 42.799 36.8821 41.8048C37.954 41.8048 38.7197 41.6519 38.8729 41.6519V45.1698ZM40.4043 56.7178C40.634 56.7943 41.3997 56.8707 42.3185 56.8707C41.3997 57.7885 40.7871 59.0121 40.4043 60.0828V56.7178ZM40.4043 49.2231C40.634 49.2996 41.3997 49.376 42.3185 49.376C41.3997 50.2938 40.7871 51.5174 40.4043 52.5881V49.2231ZM40.4043 41.6519C40.634 41.7284 41.3997 41.8048 42.3185 41.8048C41.3997 42.7226 40.7871 43.9462 40.4043 45.0169V41.6519ZM39.6386 26.433C40.4808 27.3508 42.2419 29.3392 42.2419 31.6335C42.2419 33.9278 40.5574 35.9926 39.7151 36.8339C38.8729 35.9161 37.1118 33.9278 37.1118 31.6335C37.0352 29.3392 38.7197 27.3508 39.6386 26.433ZM35.3507 34.9984C37.1883 36.4515 37.7243 38.9752 37.8775 40.2753C36.6524 40.4283 33.9724 40.5047 32.2113 39.0517C30.3737 37.5986 29.8377 35.0749 29.6845 33.7748C30.9096 33.6983 33.5896 33.6219 35.3507 34.9984ZM35.3507 42.5696C37.1883 44.0227 37.7243 46.5464 37.8775 47.8465C36.6524 47.9995 33.9724 48.0759 32.2113 46.6229C30.3737 45.1698 29.8377 42.6461 29.6845 41.346C30.9096 41.193 33.5896 41.1166 35.3507 42.5696ZM35.3507 50.0643C37.1883 51.5174 37.7243 54.0411 37.8775 55.3412C36.6524 55.4942 33.9724 55.5706 32.2113 54.1176C30.3737 52.6645 29.8377 50.1408 29.6845 48.8407C30.9096 48.7642 33.5896 48.6877 35.3507 50.0643ZM29.6845 56.4119C30.9096 56.2589 33.5896 56.1825 35.3507 57.6355C37.1883 59.0886 37.7243 61.6123 37.8775 62.9124C36.6524 63.0653 33.9724 63.1418 32.2113 61.6888C30.3737 60.2357 29.8377 57.6355 29.6845 56.4119ZM32.2113 69.7953C30.3737 68.3422 29.8377 65.8185 29.6845 64.5184C30.9096 64.3654 33.5896 64.289 35.3507 65.742C37.1883 67.1951 37.7243 69.7188 37.8775 71.0189C36.6524 71.0954 34.049 71.1719 32.2113 69.7953ZM36.3461 64.5184C36.2695 64.5184 36.2695 64.4419 36.1929 64.4419C36.3461 64.4419 36.4992 64.4419 36.6524 64.4419C37.8009 64.4419 38.7197 64.289 38.8729 64.2125V68.3422C38.4135 67.0421 37.6478 65.5891 36.3461 64.5184ZM49.516 64.5184C49.3629 65.742 48.8269 68.3422 46.9893 69.7953C45.1516 71.2483 42.5482 71.1719 41.3231 71.0189C41.4762 69.7953 42.0122 67.1951 43.8499 65.742C45.611 64.289 48.2909 64.3654 49.516 64.5184ZM42.8545 64.5184C41.5528 65.5126 40.7871 66.8892 40.3277 68.1893V64.2125C40.5574 64.289 41.3997 64.3655 42.4716 64.3655C42.6248 64.3655 42.7779 64.3655 42.9311 64.3655C42.9311 64.4419 42.9311 64.5184 42.8545 64.5184ZM46.9893 61.6123C45.1516 63.0653 42.5482 62.9889 41.3231 62.8359C41.4762 61.6123 42.0122 59.0121 43.8499 57.559C45.6876 56.106 48.2909 56.1825 49.516 56.3354C49.3629 57.6355 48.8269 60.2357 46.9893 61.6123ZM46.9893 54.1176C45.1516 55.5706 42.5482 55.4942 41.3231 55.3412C41.4762 54.1176 42.0122 51.5174 43.8499 50.0643C45.6876 48.6113 48.2909 48.6877 49.516 48.8407C49.3629 50.0643 48.8269 52.6645 46.9893 54.1176ZM46.9893 46.5464C45.1516 47.9995 42.5482 47.923 41.3231 47.77C41.4762 46.5464 42.0122 43.9462 43.8499 42.4931C45.6876 41.0401 48.2909 41.1166 49.516 41.2695C49.3629 42.5696 48.8269 45.1698 46.9893 46.5464ZM46.9893 39.0517C45.1516 40.5047 42.5482 40.4283 41.3231 40.2753C41.4762 39.0517 42.0122 36.4515 43.8499 34.9984C45.6876 33.5454 48.2909 33.6219 49.516 33.7748C49.3629 35.0749 48.8269 37.5986 46.9893 39.0517Z" fill="#DB8C3D"/>
<path d="M77.3874 32.3982C77.2343 32.3982 73.2527 31.557 70.343 33.3924C70.4962 32.8571 70.5727 32.2453 70.5727 31.6335C70.5727 27.8861 67.1271 24.9035 66.974 24.7506C66.6677 24.5211 66.2848 24.5211 65.9786 24.7506C65.8254 24.9035 62.3798 27.8096 62.3798 31.6335C62.3798 32.2453 62.4564 32.8571 62.6095 33.3924C59.6233 31.557 55.7182 32.3217 55.4885 32.3217C55.1057 32.3982 54.876 32.7041 54.876 33.0865C54.876 33.2395 55.0291 37.2163 57.4793 39.6635C56.3308 39.6635 55.5651 39.8165 55.4885 39.8929C55.1057 39.9694 54.876 40.2753 54.876 40.6577C54.876 40.8107 55.0291 44.7874 57.4793 47.2347C56.3308 47.2347 55.5651 47.3876 55.4885 47.4641C55.1057 47.5406 54.876 47.8465 54.876 48.2289C54.876 48.3818 55.0291 52.3586 57.4793 54.8059C56.3308 54.8059 55.5651 54.9588 55.4885 55.0353C55.1057 55.1118 54.876 55.4177 54.876 55.8001C54.876 56.0295 55.1057 60.5416 58.0153 62.8359C58.0919 62.8359 58.0919 62.9124 58.1685 62.9124C56.7136 62.8359 55.5651 63.0653 55.4885 63.0653C55.1057 63.1418 54.876 63.4477 54.876 63.8301C54.876 64.0595 55.1057 68.5717 58.0153 70.866C59.6999 72.1661 61.8438 72.472 63.4518 72.472C64.6003 72.472 65.5191 72.319 65.6723 72.2425V79.8137C65.6723 80.2726 65.9786 80.5785 66.438 80.5785C66.8974 80.5785 67.2037 80.2726 67.2037 79.8137V72.2425C67.4334 72.319 68.2757 72.3955 69.3476 72.3955C70.9556 72.3955 73.0995 72.0896 74.7841 70.7895C77.7703 68.4187 77.9234 63.9066 78 63.7536C78 63.3713 77.7703 63.0653 77.3874 62.9889C77.3109 62.9889 76.1623 62.7594 74.7075 62.8359C74.7841 62.8359 74.7841 62.7594 74.8606 62.7594C77.8468 60.3887 78 55.8765 78 55.7236C78 55.3412 77.7703 55.0353 77.3874 54.9588C77.3109 54.9588 76.5452 54.8059 75.3966 54.7294C77.8468 52.2821 78 48.3818 78 48.1524C78 47.77 77.7703 47.4641 77.3874 47.3876C77.3109 47.3876 76.5452 47.2347 75.3966 47.1582C77.8468 44.711 78 40.8107 78 40.5812C78 40.1988 77.7703 39.8929 77.3874 39.8165C77.3109 39.8165 76.5452 39.6635 75.3966 39.587C77.8468 37.1398 78 33.2395 78 33.01C78 32.7806 77.7703 32.4747 77.3874 32.3982ZM65.7489 60.2357C65.366 59.0886 64.7534 57.8649 63.758 56.8707C64.83 56.8707 65.5957 56.7178 65.7489 56.7178V60.2357ZM65.7489 52.741C65.366 51.5939 64.7534 50.3702 63.758 49.376C64.83 49.376 65.5957 49.2231 65.7489 49.2231V52.741ZM65.7489 45.1698C65.366 44.0227 64.7534 42.799 63.758 41.8048C64.83 41.8048 65.5957 41.6519 65.7489 41.6519V45.1698ZM67.2802 56.7178C67.51 56.7943 68.2757 56.8707 69.1945 56.8707C68.2757 57.7885 67.6631 59.0121 67.2802 60.0828V56.7178ZM67.2802 49.2231C67.51 49.2996 68.2757 49.376 69.1945 49.376C68.2757 50.2938 67.6631 51.5174 67.2802 52.5881V49.2231ZM67.2802 41.6519C67.51 41.7284 68.2757 41.8048 69.1945 41.8048C68.2757 42.7226 67.6631 43.9462 67.2802 45.0169V41.6519ZM66.5146 26.433C67.3568 27.3508 69.1179 29.3392 69.1179 31.6335C69.1179 33.9278 67.4334 35.9926 66.5911 36.8339C65.7489 35.9161 63.9878 33.9278 63.9878 31.6335C63.9112 29.3392 65.5957 27.3508 66.5146 26.433ZM62.2267 34.9984C64.0643 36.4515 64.6003 38.9752 64.7535 40.2753C63.5283 40.4283 60.8484 40.5047 59.0873 39.0517C57.2496 37.5986 56.7136 35.0749 56.5605 33.7748C57.7856 33.6983 60.389 33.6219 62.2267 34.9984ZM62.2267 42.5696C64.0643 44.0227 64.6003 46.5464 64.7535 47.8465C63.5283 47.9995 60.8484 48.0759 59.0873 46.6229C57.2496 45.1698 56.7136 42.6461 56.5605 41.346C57.7856 41.193 60.389 41.1166 62.2267 42.5696ZM62.2267 50.0643C64.0643 51.5174 64.6003 54.0411 64.7535 55.3412C63.5283 55.4942 60.8484 55.5706 59.0873 54.1176C57.2496 52.6645 56.7136 50.0643 56.5605 48.8407C57.7856 48.7642 60.389 48.6877 62.2267 50.0643ZM56.5605 56.4119C57.7856 56.2589 60.4656 56.1825 62.2267 57.6355C64.0643 59.0886 64.6003 61.6123 64.7535 62.9124C63.5283 63.0653 60.8484 63.1418 59.0873 61.6888C57.2496 60.2357 56.7136 57.6355 56.5605 56.4119ZM59.0873 69.7953C57.2496 68.3422 56.7136 65.8185 56.5605 64.5184C57.7856 64.3654 60.4656 64.289 62.2267 65.742C64.0643 67.1951 64.6003 69.7188 64.7535 71.0189C63.5283 71.0954 60.8484 71.1719 59.0873 69.7953ZM63.1455 64.5184C63.0689 64.5184 63.0689 64.4419 62.9923 64.4419C63.1455 64.4419 63.2986 64.4419 63.4518 64.4419C64.6003 64.4419 65.5191 64.289 65.6723 64.2125V68.3422C65.2894 67.0421 64.5237 65.5891 63.1455 64.5184ZM76.392 64.5184C76.2389 65.742 75.7029 68.3422 73.8652 69.7953C72.0276 71.2483 69.4242 71.1719 68.1991 71.0189C68.3522 69.7953 68.8882 67.1951 70.7259 65.742C72.487 64.289 75.1669 64.3654 76.392 64.5184ZM69.7305 64.5184C68.4288 65.5126 67.6631 66.8892 67.2037 68.1893V64.2125C67.4334 64.289 68.2757 64.3655 69.3476 64.3655C69.5008 64.3655 69.6539 64.3655 69.807 64.3655C69.807 64.4419 69.807 64.5184 69.7305 64.5184ZM73.8652 61.6123C72.0276 63.0653 69.4242 62.9889 68.1991 62.8359C68.3522 61.6123 68.8882 59.0121 70.7259 57.559C72.5635 56.106 75.1669 56.1825 76.392 56.3354C76.2389 57.6355 75.7029 60.2357 73.8652 61.6123ZM73.8652 54.1176C72.0276 55.5706 69.4242 55.4942 68.1991 55.3412C68.3522 54.1176 68.8882 51.5174 70.7259 50.0643C72.5635 48.6113 75.1669 48.6877 76.392 48.8407C76.2389 50.0643 75.7029 52.6645 73.8652 54.1176ZM73.8652 46.5464C72.0276 47.9995 69.4242 47.923 68.1991 47.77C68.3522 46.5464 68.8882 43.9462 70.7259 42.4931C72.5635 41.0401 75.1669 41.1166 76.392 41.2695C76.2389 42.5696 75.7029 45.1698 73.8652 46.5464ZM73.8652 39.0517C72.0276 40.5047 69.4242 40.4283 68.1991 40.2753C68.3522 39.0517 68.8882 36.4515 70.7259 34.9984C72.5635 33.5454 75.1669 33.6219 76.392 33.7748C76.2389 35.0749 75.7029 37.5986 73.8652 39.0517Z" fill="#DB8C3D"/>
</svg>
