<svg width="105" height="105" viewBox="0 0 105 105" fill="none" xmlns="http://www.w3.org/2000/svg">
<circle cx="52.5" cy="52.5" r="52" fill="white" stroke="#DB8C3D"/>
<path d="M78.2198 25C77.2106 25 76.2616 25.3797 75.5476 26.0691L69.9826 31.4424L69.5342 31.0094C68.3051 29.8227 66.3047 29.8227 65.0749 31.0094L60.374 35.5483L57.9993 33.2554C50.9853 26.4831 39.5723 26.4831 32.5583 33.2554C25.5444 40.0277 25.5444 51.0475 32.5583 57.8199L34.9331 60.1121L30.2322 64.651C29.0031 65.8378 29.0031 67.7692 30.2322 68.9567L30.6806 69.3896L25.1047 74.7734C23.6318 76.1956 23.6318 78.5102 25.1047 79.933C25.8418 80.6441 26.809 81 27.7769 81C28.7448 81 29.712 80.6441 30.4491 79.933L36.025 74.5492L36.4734 74.9822C37.088 75.5756 37.8955 75.8726 38.7031 75.8726C39.5106 75.8726 40.3182 75.5756 40.9327 74.9822L45.7061 70.3732L48.1789 72.7607C51.6855 76.1465 56.2928 77.8398 60.8993 77.8398C65.5059 77.8398 70.1125 76.1465 73.6198 72.7607C80.6338 65.9884 80.6338 54.9693 73.6198 48.1963L71.1471 45.8094L75.7762 41.3399C77.0053 40.1531 77.0053 38.2217 75.7762 37.0342L75.3278 36.6013L80.8928 31.228C81.6068 30.5386 82 29.6223 82 28.6478C82 27.6726 81.6068 26.757 80.8928 26.0677C80.1781 25.3797 79.2298 25 78.2198 25ZM33.585 56.8293C27.1369 50.6034 27.1369 40.4726 33.585 34.246C40.0337 28.0201 50.5253 28.0201 56.9733 34.246L59.3481 36.5389L42.9831 52.3401L38.6559 48.1626C38.3722 47.8887 37.9137 47.8887 37.63 48.1626C37.3463 48.4365 37.3463 48.8793 37.63 49.1532L41.9572 53.3307L35.9597 59.1215L33.585 56.8293ZM29.4232 78.9431C28.5162 79.8189 27.039 79.8189 26.1313 78.9431C25.2244 78.0667 25.2244 76.6411 26.1313 75.7647L31.7072 70.3809L34.9991 73.5593L29.4232 78.9431ZM72.5931 49.1882C79.0412 55.4148 79.0412 65.5456 72.5931 71.7715C66.1451 77.9974 55.6535 77.9974 49.2041 71.7715L46.7314 69.384L62.8416 53.8288L67.0223 57.8654C67.1638 58.002 67.3495 58.0707 67.5353 58.0707C67.721 58.0707 67.9068 58.002 68.0483 57.8654C68.3319 57.5915 68.3319 57.1487 68.0483 56.8748L63.8676 52.8382L70.1197 46.8014L72.5931 49.1882ZM74.7495 40.35L39.9068 73.9923C39.2429 74.6326 38.164 74.6326 37.5001 73.9923L31.2588 67.9661C30.595 67.3251 30.595 66.2826 31.2588 65.6423L66.1016 32C66.4339 31.6798 66.8692 31.5194 67.3053 31.5194C67.7413 31.5194 68.1767 31.6798 68.509 32L74.7502 38.0262C75.4134 38.6665 75.4134 39.709 74.7495 40.35ZM79.8661 30.2381L74.3011 35.6114L71.0093 32.4329L76.5743 27.0596C77.4537 26.2106 78.9868 26.2106 79.8661 27.0596C80.3058 27.4842 80.5482 28.0488 80.5482 28.6492C80.5482 29.2496 80.3051 29.8135 79.8661 30.2381Z" fill="#DB8C3D"/>
</svg>
