<svg width="106" height="105" viewBox="0 0 106 105" fill="none" xmlns="http://www.w3.org/2000/svg">
<path d="M105.5 52.5C105.5 81.2143 81.9994 104.5 53 104.5C24.0006 104.5 0.5 81.2143 0.5 52.5C0.5 23.7857 24.0006 0.5 53 0.5C81.9994 0.5 105.5 23.7857 105.5 52.5Z" fill="white" stroke="#DB8C3D"/>
<path d="M49.5422 74.4722H50.9956C51.3824 74.4722 51.6951 74.1589 51.6951 73.7728C51.6951 73.3867 51.3824 73.0734 50.9956 73.0734H49.5422C49.1554 73.0734 48.8428 73.3867 48.8428 73.7728C48.8428 74.1589 49.1554 74.4722 49.5422 74.4722Z" fill="#DB8C3D"/>
<path d="M56.3166 74.4722H57.7707C58.1575 74.4722 58.4702 74.1589 58.4702 73.7728C58.4702 73.3867 58.1575 73.0734 57.7707 73.0734H56.3166C55.9298 73.0734 55.6172 73.3867 55.6172 73.7728C55.6172 74.1589 55.9305 74.4722 56.3166 74.4722Z" fill="#DB8C3D"/>
<path d="M49.5422 78.1897H50.9956C51.3824 78.1897 51.6951 77.8764 51.6951 77.4903C51.6951 77.1042 51.3824 76.7908 50.9956 76.7908H49.5422C49.1554 76.7908 48.8428 77.1042 48.8428 77.4903C48.8428 77.8764 49.1554 78.1897 49.5422 78.1897Z" fill="#DB8C3D"/>
<path d="M56.3166 78.1897H57.7707C58.1575 78.1897 58.4702 77.8764 58.4702 77.4903C58.4702 77.1042 58.1575 76.7908 57.7707 76.7908H56.3166C55.9298 76.7908 55.6172 77.1042 55.6172 77.4903C55.6172 77.8764 55.9305 78.1897 56.3166 78.1897Z" fill="#DB8C3D"/>
<path d="M45.7349 62.9603C45.5454 62.856 45.3174 62.8442 45.1187 62.9302C44.9201 63.0162 44.7718 63.1897 44.7187 63.3988L44.1542 65.6125H42.3371C36.0856 65.6125 31 70.6981 31 76.9496V80.3006C31 80.6867 31.3126 81 31.6994 81H73.5779C73.9647 81 74.2773 80.6867 74.2773 80.3006V76.9496C74.2773 70.6981 69.1918 65.6125 62.9402 65.6125H61.1231L60.558 63.3995C60.5048 63.1897 60.3565 63.0162 60.1579 62.9309C59.9586 62.8442 59.732 62.856 59.5417 62.961L58.1715 63.7191V62.386C58.2597 62.3874 58.3499 62.3909 58.4366 62.3909C62.5884 62.3909 65.1728 60.9781 65.2868 60.9151C65.4981 60.7976 65.6331 60.5787 65.645 60.3374C65.6568 60.0954 65.5421 59.8653 65.3428 59.7282C63.9768 58.7881 62.8388 55.6281 62.515 54.4901C62.5143 54.488 62.5122 54.4859 62.5115 54.4838C62.9123 53.3606 63.134 52.1596 63.134 50.9153C63.134 48.5813 62.3492 46.3159 60.9287 44.4666V40.2826C63.646 39.3034 65.3435 36.6092 65.0155 33.6785C64.7042 30.8878 62.4597 28.5804 59.6781 28.1922C58.9528 28.0901 58.2324 28.1125 57.5301 28.2566C56.4376 26.2604 54.34 25 52.0333 25C49.5811 25 47.3702 26.4359 46.3525 28.6301C45.6426 28.5188 44.9327 28.5559 44.2374 28.7406C41.9055 29.3638 40.2668 31.4579 40.2528 33.8338C40.2381 36.3637 41.9727 38.4983 44.3787 39.0362V44.1351C42.791 46.041 41.9139 48.4415 41.9139 50.9153C41.9139 52.2422 42.1657 53.52 42.6197 54.7063C42.228 55.9848 41.1432 58.842 39.8562 59.7282C39.6576 59.8653 39.5429 60.0954 39.554 60.3374C39.5659 60.5787 39.7009 60.7976 39.9122 60.9151C40.0262 60.9781 42.6099 62.3909 46.7617 62.3909C46.8351 62.3909 46.9121 62.3874 46.9862 62.3867V63.6534L45.7349 62.9603ZM44.9593 71.4409V79.6011H32.3989V76.9496C32.3989 71.4702 36.857 67.0114 42.3371 67.0114H44.697C45.0166 67.0114 45.295 66.7945 45.3747 66.4854L45.8503 64.6235L51.1947 67.58L45.3209 70.8296C45.097 70.9527 44.9593 71.187 44.9593 71.4409ZM59.9026 66.4854C59.9824 66.7945 60.2607 67.0114 60.5804 67.0114H62.9402C68.4203 67.0114 72.8785 71.4702 72.8785 76.9496V79.6011H46.3581V71.8535L59.4277 64.6235L59.9026 66.4854ZM43.3289 51.328C45.0796 51.1378 51.3605 50.1893 54.2267 46.2326C55.2339 47.5518 57.64 50.0236 61.7204 50.5684C61.7246 50.6838 61.7358 50.7985 61.7358 50.9146C61.7358 54.8986 59.1913 58.4132 55.4437 59.6484C52.3404 60.4724 49.6594 59.6645 49.6434 59.6603C45.9888 58.4559 43.4988 55.1392 43.3289 51.328ZM45.3349 45.1793H53.2545C50.9387 48.6863 45.2341 49.6773 43.3743 49.911C43.5646 48.1876 44.2437 46.5467 45.3349 45.1793ZM59.7145 45.1793C60.6398 46.339 61.27 47.6952 61.5554 49.1332C57.933 48.5226 55.9033 46.183 55.1863 45.1793H59.7145ZM63.6928 60.0877C62.6332 60.4829 60.7077 61.0249 58.1715 60.983V59.8939C59.6138 58.9896 60.8 57.7586 61.6526 56.3199C62.0799 57.4599 62.7717 59.0127 63.6928 60.0877ZM41.6516 33.8408C41.6621 32.0929 42.8736 30.5514 44.5984 30.0912C45.2488 29.917 45.9196 29.924 46.5938 30.1107C46.9491 30.2066 47.3198 30.0142 47.4408 29.6666C48.1221 27.7117 49.9679 26.3975 52.034 26.3975C53.7259 26.3975 55.271 27.2725 56.153 28.6755C55.4256 28.9917 54.396 29.6239 53.677 30.8396C53.4804 31.1718 53.5902 31.6005 53.9232 31.7978C54.0344 31.8635 54.1575 31.895 54.2785 31.895C54.5177 31.895 54.7506 31.7726 54.8807 31.5516C55.7431 30.094 57.214 29.7757 57.2867 29.7603C57.2986 29.7582 57.3077 29.7498 57.3196 29.747C57.3322 29.7442 57.3455 29.7463 57.3581 29.7428C58.0456 29.5309 58.7625 29.4757 59.4858 29.5764C61.6435 29.8778 63.3851 31.6677 63.6264 33.8331C63.8978 36.2532 62.3926 38.4655 60.0502 39.0935C59.7438 39.1754 59.5319 39.4524 59.5319 39.7692V43.7818H45.7776V38.4417C45.7776 38.0829 45.5062 37.7821 45.1495 37.7457C43.1428 37.5401 41.6391 35.8615 41.6516 33.8408ZM41.5055 60.0877C42.3854 59.0609 43.0561 57.5991 43.487 56.4758C44.3536 57.8824 45.5475 59.0798 46.9862 59.9583V60.983C44.4732 61.0172 42.5588 60.4801 41.5055 60.0877ZM48.3844 60.678C48.6551 60.7927 48.932 60.8983 49.2153 60.9914C49.2971 61.0172 50.6072 61.4173 52.5075 61.4173C53.4902 61.4173 54.6317 61.3103 55.8417 60.9879C56.1607 60.8829 56.4698 60.7598 56.7727 60.6277V64.492L52.6334 66.7819C52.6131 66.7673 52.5901 66.7533 52.5677 66.7407L48.3844 64.4263V60.678Z" fill="#DB8C3D"/>
</svg>
