<svg display="none" xmlns="http://www.w3.org/2000/svg">

   <!-- cart -->
   <symbol id="cart">
      <svg>
         <g>
            <path d="M22.64 3.153a1.603 1.603 0 00-1.258-.608H3.852L3.694 1.41A1.63 1.63 0 002.093 0H.72A.723.723 0 000 .727c0 .402.322.728.719.728h1.374a.18.18 0 01.178.156l1.94 14.07c.111.804.8 1.41 1.602 1.41h.78c-.08.227-.124.472-.124.727 0 1.203.967 2.182 2.156 2.182s2.156-.979 2.156-2.182c0-.255-.044-.5-.123-.727h3.84c-.08.227-.123.472-.123.727 0 1.203.967 2.182 2.156 2.182s2.156-.979 2.156-2.182c0-.255-.044-.5-.123-.727h1.56a.723.723 0 00.72-.727.723.723 0 00-.72-.728H5.814a.181.181 0 01-.178-.156l-.179-1.298h14.155a1.63 1.63 0 001.581-1.294l1.772-8.363a1.643 1.643 0 00-.324-1.372zM9.344 17.818a.724.724 0 01-.72.727.724.724 0 01-.718-.727c0-.4.323-.727.719-.727.396 0 .719.326.719.727zm7.906 0a.724.724 0 01-.719.727.724.724 0 01-.719-.727c0-.4.323-.727.72-.727.395 0 .718.326.718.727zM21.558 4.22l-1.771 8.363a.181.181 0 01-.176.144H5.255L4.052 4h17.33a.181.181 0 01.176.22z"/>
         </g>
      </svg>
   </symbol>
   <!-- cart -->

   <!-- facebook -->
   <symbol id="facebook" viewBox="0 0 32 32">
      <svg>
         <g>
            <path d="M18.5801 31.792C18.4468 31.8137 18.313 31.8337 18.1787 31.8521C18.313 31.8337 18.4468 31.8137 18.5801 31.792Z"/>
            <path d="M18.9001 31.7373C18.8364 31.749 18.7727 31.7598 18.709 31.7708C18.7727 31.7598 18.8364 31.749 18.9001 31.7373Z"/>
            <path d="M17.821 31.8965C17.665 31.9141 17.5081 31.9297 17.3506 31.9429C17.5081 31.9297 17.665 31.9141 17.821 31.8965Z"/>
            <path d="M18.1279 31.8584C18.053 31.8684 17.9775 31.8777 17.9023 31.8865C17.9775 31.8777 18.053 31.8684 18.1279 31.8584Z"/>
            <path d="M19.3359 31.6504C19.2798 31.6624 19.2234 31.6743 19.167 31.6858C19.2234 31.6743 19.2798 31.6624 19.3359 31.6504Z"/>
            <path d="M20.4165 31.3818C20.3711 31.3948 20.3257 31.407 20.2803 31.4197C20.3257 31.407 20.3711 31.3948 20.4165 31.3818Z"/>
            <path d="M20.0898 31.4717C20.0405 31.4846 19.991 31.4978 19.9414 31.5103C19.991 31.4978 20.0405 31.4849 20.0898 31.4717Z"/>
            <path d="M19.6616 31.5781C19.6094 31.5903 19.5566 31.6018 19.5039 31.6135C19.5566 31.6018 19.6094 31.5903 19.6616 31.5781Z"/>
            <path d="M17.3457 31.9434C17.2615 31.9504 17.1772 31.9568 17.0928 31.9624C17.1772 31.9568 17.2615 31.9504 17.3457 31.9434Z"/>
            <path d="M32 16C32 7.16479 24.8352 0 16 0C7.16479 0 0 7.16479 0 16C0 24.8352 7.16479 32 16 32C16.094 32 16.1875 31.998 16.2812 31.9963V19.541H12.8438V15.5349H16.2812V12.5869C16.2812 9.16797 18.3684 7.30713 21.4182 7.30713C22.8787 7.30713 24.134 7.41602 24.5 7.4646V11.0378H22.397C20.7378 11.0378 20.4165 11.8264 20.4165 12.9834V15.5349H24.3838L23.8667 19.541H20.4165V31.3818C27.1042 29.4646 32 23.3032 32 16Z"/>
            <path d="M17.0571 31.9644C16.8906 31.9751 16.7234 31.9836 16.5557 31.9893C16.7234 31.9836 16.8906 31.9751 17.0571 31.9644Z"/>
            <path d="M16.5469 31.9897C16.4585 31.9927 16.3699 31.9949 16.2812 31.9963C16.3699 31.9949 16.4585 31.9927 16.5469 31.9897Z"/>
         </g>
      </svg>
   </symbol>
   <!-- facebook -->

   <!-- inst -->
   <symbol id="inst" viewBox="0 0 32 32">
      <svg>
         <g>
            <path d="M19.0625 16C19.0625 17.6914 17.6914 19.0625 16 19.0625C14.3086 19.0625 12.9375 17.6914 12.9375 16C12.9375 14.3086 14.3086 12.9375 16 12.9375C17.6914 12.9375 19.0625 14.3086 19.0625 16Z"/>
            <path d="M23.1621 10.5813C23.0149 10.1824 22.78 9.82129 22.4749 9.5249C22.1785 9.21973 21.8176 8.98486 21.4185 8.83765C21.0947 8.71191 20.6084 8.56226 19.7126 8.52148C18.7437 8.47729 18.4531 8.46777 16 8.46777C13.5466 8.46777 13.2561 8.47705 12.2874 8.52124C11.3916 8.56226 10.905 8.71191 10.5815 8.83765C10.1824 8.98486 9.82129 9.21973 9.52515 9.5249C9.21997 9.82129 8.98511 10.1821 8.83765 10.5813C8.71191 10.905 8.56226 11.3916 8.52148 12.2874C8.47729 13.2561 8.46777 13.5466 8.46777 16C8.46777 18.4531 8.47729 18.7437 8.52148 19.7126C8.56226 20.6084 8.71191 21.0947 8.83765 21.4185C8.98511 21.8176 9.21973 22.1785 9.5249 22.4749C9.82129 22.78 10.1821 23.0149 10.5813 23.1621C10.905 23.2881 11.3916 23.4377 12.2874 23.4785C13.2561 23.5227 13.5464 23.532 15.9998 23.532C18.4534 23.532 18.7439 23.5227 19.7124 23.4785C20.6082 23.4377 21.0947 23.2881 21.4185 23.1621C22.2197 22.853 22.853 22.2197 23.1621 21.4185C23.2878 21.0947 23.4375 20.6084 23.4785 19.7126C23.5227 18.7437 23.532 18.4531 23.532 16C23.532 13.5466 23.5227 13.2561 23.4785 12.2874C23.4377 11.3916 23.2881 10.905 23.1621 10.5813ZM16 20.7175C13.3943 20.7175 11.282 18.6055 11.282 15.9998C11.282 13.394 13.3943 11.282 16 11.282C18.6055 11.282 20.7178 13.394 20.7178 15.9998C20.7178 18.6055 18.6055 20.7175 16 20.7175ZM20.9043 12.198C20.2954 12.198 19.8018 11.7043 19.8018 11.0955C19.8018 10.4866 20.2954 9.99292 20.9043 9.99292C21.5132 9.99292 22.0068 10.4866 22.0068 11.0955C22.0066 11.7043 21.5132 12.198 20.9043 12.198Z"/>
            <path d="M16 0C7.16479 0 0 7.16479 0 16C0 24.8352 7.16479 32 16 32C24.8352 32 32 24.8352 32 16C32 7.16479 24.8352 0 16 0ZM25.1321 19.7878C25.0876 20.7659 24.9321 21.4336 24.7051 22.0181C24.2278 23.2522 23.2522 24.2278 22.0181 24.7051C21.4338 24.9321 20.7659 25.0874 19.7881 25.1321C18.8083 25.1768 18.4954 25.1875 16.0002 25.1875C13.5049 25.1875 13.1921 25.1768 12.2122 25.1321C11.2344 25.0874 10.5664 24.9321 9.98218 24.7051C9.3689 24.4744 8.81372 24.1128 8.35474 23.6453C7.88745 23.1865 7.52588 22.6311 7.29517 22.0181C7.06812 21.4338 6.9126 20.7659 6.86816 19.7881C6.823 18.8081 6.8125 18.4951 6.8125 16C6.8125 13.5049 6.823 13.1919 6.86792 12.2122C6.91235 11.2341 7.06763 10.5664 7.29468 9.98193C7.52539 9.3689 7.88721 8.81348 8.35474 8.35474C8.81348 7.88721 9.3689 7.52563 9.98193 7.29492C10.5664 7.06787 11.2341 6.9126 12.2122 6.86792C13.1919 6.82324 13.5049 6.8125 16 6.8125C18.4951 6.8125 18.8081 6.82324 19.7878 6.86816C20.7659 6.9126 21.4336 7.06787 22.0181 7.29468C22.6311 7.52539 23.1865 7.88721 23.6455 8.35474C24.1128 8.81372 24.4746 9.3689 24.7051 9.98193C24.9324 10.5664 25.0876 11.2341 25.1323 12.2122C25.177 13.1919 25.1875 13.5049 25.1875 16C25.1875 18.4951 25.177 18.8081 25.1321 19.7878Z"/>
         </g>
      </svg>
   </symbol>
   <!-- inst -->

   <!-- twitter -->
   <symbol id="twitter" viewBox="0 0 32 32">
      <svg>
         <g>
            <path d="M16 0C7.16479 0 0 7.16479 0 16C0 24.8352 7.16479 32 16 32C24.8352 32 32 24.8352 32 16C32 7.16479 24.8352 0 16 0ZM23.3054 12.4751C23.3125 12.6326 23.3159 12.7908 23.3159 12.9497C23.3159 17.8025 19.6221 23.3984 12.8669 23.3987H12.8672H12.8669C10.793 23.3987 8.86304 22.7908 7.23779 21.749C7.52515 21.783 7.81763 21.7998 8.11377 21.7998C9.83447 21.7998 11.418 21.2129 12.675 20.2278C11.0674 20.198 9.71191 19.1362 9.24414 17.677C9.46802 17.72 9.69824 17.7434 9.93433 17.7434C10.2695 17.7434 10.5942 17.6982 10.9028 17.614C9.22241 17.2776 7.95654 15.7925 7.95654 14.0142C7.95654 13.9976 7.95654 13.9827 7.95703 13.9673C8.4519 14.2424 9.01782 14.408 9.62036 14.4265C8.63428 13.7686 7.98608 12.6438 7.98608 11.3696C7.98608 10.6968 8.16797 10.0664 8.4834 9.52368C10.2944 11.7458 13.001 13.2073 16.0532 13.3608C15.9902 13.0918 15.9578 12.8115 15.9578 12.5234C15.9578 10.4961 17.6025 8.85132 19.6306 8.85132C20.687 8.85132 21.6411 9.29785 22.3113 10.0117C23.1479 9.84668 23.9336 9.54102 24.6433 9.12036C24.3687 9.97754 23.7866 10.6968 23.0283 11.1516C23.7712 11.0627 24.4792 10.8657 25.1372 10.5732C24.6458 11.3098 24.0225 11.9568 23.3054 12.4751Z"/>
         </g>
      </svg>
   </symbol>
   <!-- twitter -->
</svg>